<svg id="Avatar" height="512" viewBox="0 0 64 64" width="512" xmlns="http://www.w3.org/2000/svg"><path d="m12.69 49.75-.58-.81a5.986 5.986 0 0 1 -.49-6.18l2.75-5.49a6.108 6.108 0 0 0 .63-2.69v-17.58a14 14 0 0 1 14-14h6a14 14 0 0 1 14 14v31.73c0 1.5-36.31 1.02-36.31 1.02z" fill="#f6cc4f"/><path d="m12 54h40v7h-40z" fill="#3e3d42"/><path d="m52 53v1h-40v-1a8 8 0 0 1 8-8h6v-9h12v9h6a8 8 0 0 1 8 8z" fill="#ffcbbe"/><path d="m49 28v29h-2a10 10 0 0 1 -10-10v-19z" fill="#f6cc4f"/><path d="m43 21.473v12.166a3.948 3.948 0 0 1 -.841 2.465 12.958 12.958 0 0 1 -10.278 4.896 13.248 13.248 0 0 1 -12.881-13.38v-9.383a2 2 0 0 1 1.106-1.79l8-4a1.991 1.991 0 0 1 1.78 0l10.9 5.445a4 4 0 0 1 2.214 3.581z" fill="#ffddce"/><path d="m43 31.23v2.41a3.959 3.959 0 0 1 -.84 2.46 12.921 12.921 0 0 1 -22.52-4.35l8.77-3.37a9.988 9.988 0 0 1 7.18 0z" fill="#b4e6ee"/><path d="m27 21a1 1 0 0 0 -1 1v2a1 1 0 0 0 2 0v-2a1 1 0 0 0 -1-1z"/><path d="m37 21a1 1 0 0 0 -1 1v2a1 1 0 0 0 2 0v-2a1 1 0 0 0 -1-1z"/><path d="m50 46.32v-29.32a15.018 15.018 0 0 0 -15-15h-6a15.018 15.018 0 0 0 -15 15v17.58a5.177 5.177 0 0 1 -.52 2.24l-2.75 5.49a6.968 6.968 0 0 0 .57 7.21l.26.38a9.046 9.046 0 0 0 -.56 3.1v8a1 1 0 0 0 1 1h40a1 1 0 0 0 1-1v-8a8.894 8.894 0 0 0 -3-6.68zm-34-29.32a13.012 13.012 0 0 1 13-13h6a13.012 13.012 0 0 1 13 13v39h-1a9.014 9.014 0 0 1 -9-9v-6.35a14.043 14.043 0 0 0 4.94-3.92 5 5 0 0 0 1.06-3.09v-12.17a4.97 4.97 0 0 0 -2.77-4.47l-10.89-5.44a3.008 3.008 0 0 0 -2.68 0l-8 3.99a2.981 2.981 0 0 0 -1.64 2.45h-1.02a3 3 0 0 0 -1 .18zm21.79 36h-15.79v-7h5a1 1 0 0 0 1-1v-3.61a13.443 13.443 0 0 0 3.87.61h.13a14.033 14.033 0 0 0 4-.6v5.6a10.937 10.937 0 0 0 1.79 6zm-5.9-13a12.051 12.051 0 0 1 -10.98-7.66l7.86-3.03a8.994 8.994 0 0 1 6.46 0l6.77 2.61v1.72a2.96 2.96 0 0 1 -.62 1.84 11.951 11.951 0 0 1 -9.49 4.52zm-11.57-9.58a12.919 12.919 0 0 1 -.32-2.8v-9.38a1 1 0 0 1 .55-.9l8.01-4a1.018 1.018 0 0 1 .88 0l10.9 5.45a2.988 2.988 0 0 1 1.66 2.68v8.3l-6.05-2.32a10.981 10.981 0 0 0 -7.9 0zm-4.32-9.42a1 1 0 0 1 1-1h1v5h-1a1 1 0 0 1 -1-1zm-3.49 22.21 2.76-5.5a7.181 7.181 0 0 0 .73-3.13v-7.76a3 3 0 0 0 1 .18h1v.62a14.447 14.447 0 0 0 8 12.97v3.41h-6a9.017 9.017 0 0 0 -7.38 3.87 4.96 4.96 0 0 1 -.11-4.66zm7.49 2.79v7h-7a6.994 6.994 0 0 1 7-7zm31 14h-38v-5h26.47a10.982 10.982 0 0 0 7.53 3h2a1 1 0 0 0 1-1v-2h1zm-1-7v-3.6a6.893 6.893 0 0 1 1 3.6z"/></svg>