<svg id="Avatar" height="512" viewBox="0 0 64 64" width="512" xmlns="http://www.w3.org/2000/svg"><path d="m20 45h24a8 8 0 0 1 8 8v8a0 0 0 0 1 0 0h-40a0 0 0 0 1 0 0v-8a8 8 0 0 1 8-8z" fill="#ec455a"/><path d="m42 45a10 10 0 0 1 -20 0z" fill="#fff"/><path d="m32 50a5.658 5.658 0 0 1 -5.648-5.99l.648-11.01h10l.648 11.01a5.658 5.658 0 0 1 -5.648 5.99z" fill="#ffcbbe"/><path d="m32 41a13 13 0 0 1 -13-13v-19l4-3h18l4 3v19a13 13 0 0 1 -13 13z" fill="#ffddce"/><path d="m17 19h2a0 0 0 0 1 0 0v7a0 0 0 0 1 0 0h-2a2 2 0 0 1 -2-2v-3a2 2 0 0 1 2-2z" fill="#ffcbbe"/><path d="m47 19h2a0 0 0 0 1 0 0v7a0 0 0 0 1 0 0h-2a2 2 0 0 1 -2-2v-3a2 2 0 0 1 2-2z" fill="#ffcbbe" transform="matrix(-1 0 0 -1 94 45)"/><path d="m19.69 22a4 4 0 0 0 3.929-3.252l1.381-5.248a3.5 3.5 0 0 1 3.5-3.5 3.517 3.517 0 0 1 3.5 3.5 3.5 3.5 0 0 1 3.5-3.5 3.517 3.517 0 0 1 3.5 3.5l1.381 5.248a4 4 0 0 0 3.929 3.252h3.69v-9a10 10 0 0 0 -10-10h-12a10 10 0 0 0 -10 10v9z" fill="#ffda44"/><path d="m35.59 28.38 8.85 3.4a13 13 0 0 1 -24.88 0l8.85-3.4a9.988 9.988 0 0 1 7.18 0z" fill="#b4e6ee"/><path d="m44 44h-5.35v-.05l-.21-3.53a14.02 14.02 0 0 0 7.56-12.42v-1h1a3.009 3.009 0 0 0 3-3v-3a2.942 2.942 0 0 0 -1-2.21v-5.79a11.007 11.007 0 0 0 -11-11h-12a11.007 11.007 0 0 0 -11 11v5.79a2.942 2.942 0 0 0 -1 2.21v3a3.009 3.009 0 0 0 3 3h1v1a14.02 14.02 0 0 0 7.56 12.42l-.21 3.53v.05h-5.35a9.014 9.014 0 0 0 -9 9v8a1 1 0 0 0 1 1h40a1 1 0 0 0 1-1v-8a9.014 9.014 0 0 0 -9-9zm4-20a1 1 0 0 1 -1 1h-1v-2h2zm-30 1h-1a1 1 0 0 1 -1-1v-1h2zm-1-4v-8a9.014 9.014 0 0 1 9-9h12a9.014 9.014 0 0 1 9 9v8h-2.69a3.024 3.024 0 0 1 -2.96-2.5l-1.35-5.14a4.529 4.529 0 0 0 -4.5-4.36 4.5 4.5 0 0 0 -3.5 1.67c-.1-.12-.21-.23-.32-.34a4.406 4.406 0 0 0 -3.18-1.33 4.505 4.505 0 0 0 -4.5 4.36l-1.36 5.2a3.01 3.01 0 0 1 -2.95 2.44zm3 7v-5.03a4.974 4.974 0 0 0 4.59-3.97l1.38-5.25a1.007 1.007 0 0 0 .03-.25 2.5 2.5 0 0 1 2.5-2.5 2.509 2.509 0 0 1 2.5 2.5 1 1 0 0 0 2 0 2.5 2.5 0 0 1 2.5-2.5 2.509 2.509 0 0 1 2.5 2.5 1.007 1.007 0 0 0 .03.25l1.37 5.19a4.987 4.987 0 0 0 4.6 4.03v5.03a12.338 12.338 0 0 1 -.25 2.45l-7.8-3a10.981 10.981 0 0 0 -7.9 0l-7.8 3a12.338 12.338 0 0 1 -.25-2.45zm.83 4.37 7.94-3.06a8.994 8.994 0 0 1 6.46 0l7.94 3.06a11.991 11.991 0 0 1 -22.34 0zm15.82 11.7a4.474 4.474 0 0 1 -.02.82 4.662 4.662 0 0 1 -9.26-.01 4.343 4.343 0 0 1 -.02-.81l.17-2.82a13.755 13.755 0 0 0 8.96 0zm-11.09 1.93a6.647 6.647 0 0 0 12.88 0h2.5a9 9 0 0 1 -17.88 0zm25.44 14h-38v-7a7.008 7.008 0 0 1 7-7h1.05a11 11 0 0 0 21.9 0h1.05a7.008 7.008 0 0 1 7 7z"/><path d="m27 21a1 1 0 0 0 -1 1v2a1 1 0 0 0 2 0v-2a1 1 0 0 0 -1-1z"/><path d="m37 25a1 1 0 0 0 1-1v-2a1 1 0 0 0 -2 0v2a1 1 0 0 0 1 1z"/></svg>