<svg id="Avatar" height="512" viewBox="0 0 64 64" width="512" xmlns="http://www.w3.org/2000/svg"><path d="m29 3h6a14 14 0 0 1 14 14v33a0 0 0 0 1 0 0h-34a0 0 0 0 1 0 0v-33a14 14 0 0 1 14-14z" fill="#3e3d42"/><path d="m20 45h24a8 8 0 0 1 8 8v8a0 0 0 0 1 0 0h-40a0 0 0 0 1 0 0v-8a8 8 0 0 1 8-8z" fill="#b4cdf8"/><path d="m38 45-6 9-6-9 1-12h10z" fill="#ffcbbe"/><path d="m21 15h22a2 2 0 0 1 2 2v11a13 13 0 0 1 -13 13 13 13 0 0 1 -13-13v-11a2 2 0 0 1 2-2z" fill="#ffddce"/><path d="m35.59 28.38 8.85 3.4a13 13 0 0 1 -24.88 0l8.85-3.4a9.988 9.988 0 0 1 7.18 0z" fill="#b4e6ee"/><path d="m50 46.311v-32.311c0-5.4-6.922-12-15-12h-6a15.017 15.017 0 0 0 -15 15v29.311a8.971 8.971 0 0 0 -3 6.689v8a1 1 0 0 0 1 1h40a1 1 0 0 0 1-1v-8a8.971 8.971 0 0 0 -3-6.689zm-34-29.311a13.015 13.015 0 0 1 13-13h6c7.417 0 13 6.066 13 10v30.95a8.921 8.921 0 0 0 -4-.95h-5.08l-.307-3.666a14.009 14.009 0 0 0 7.387-12.334v-11a3 3 0 0 0 -3-3h-22a3 3 0 0 0 -3 3v11a14.009 14.009 0 0 0 7.387 12.334l-.307 3.666h-5.08a8.921 8.921 0 0 0 -4 .95zm20.974 27.735-4.843 7.265h-.262l-4.843-7.265.3-3.555a13.742 13.742 0 0 0 9.352 0zm-16.974-16.735v-11a1 1 0 0 1 1-1h22a1 1 0 0 1 1 1v11a12.041 12.041 0 0 1 -.252 2.447l-7.8-3a11 11 0 0 0 -7.9 0l-7.8 3a12.041 12.041 0 0 1 -.248-2.447zm8.769 1.314a8.979 8.979 0 0 1 6.462 0l7.935 3.052a11.983 11.983 0 0 1 -22.332 0zm22.231 30.686h-38v-7a7.008 7.008 0 0 1 7-7h5.465l5.535 8.3v3.7h2v-3.7l5.535-8.3h5.465a7.008 7.008 0 0 1 7 7z"/><path d="m27 21a1 1 0 0 0 -1 1v2a1 1 0 0 0 2 0v-2a1 1 0 0 0 -1-1z"/><path d="m37 25a1 1 0 0 0 1-1v-2a1 1 0 0 0 -2 0v2a1 1 0 0 0 1 1z"/></svg>