<svg id="Avatar" height="512" viewBox="0 0 64 64" width="512" xmlns="http://www.w3.org/2000/svg"><path d="m50 51v-17a10 10 0 0 0 -10-10h-4v7h3a4 4 0 0 1 4 4v14z" fill="#3e3d42"/><path d="m20 45h24a8 8 0 0 1 8 8v8a0 0 0 0 1 0 0h-40a0 0 0 0 1 0 0v-8a8 8 0 0 1 8-8z" fill="#e4bf93"/><path d="m38 45-6 6-6-6 1-12h10z" fill="#ffddce"/><path d="m46 21h2a0 0 0 0 1 0 0v7a0 0 0 0 1 0 0h-2a2 2 0 0 1 -2-2v-3a2 2 0 0 1 2-2z" fill="#ffcbbe" transform="matrix(-1 0 0 -1 92 49)"/><circle cx="45" cy="13" fill="#2d2d30" r="6"/><path d="m18 21h2a0 0 0 0 1 0 0v7a0 0 0 0 1 0 0h-2a2 2 0 0 1 -2-2v-3a2 2 0 0 1 2-2z" fill="#ffcbbe"/><path d="m32 41a13 13 0 0 1 -13-13v-19l26 1v18a13 13 0 0 1 -13 13z" fill="#ffddce"/><path d="m48 19v4h-3l-2.51-5.02a2.088 2.088 0 0 0 -1.49-1.08 5 5 0 0 1 -4-4.9 6 6 0 0 1 -6 6h-6.53a4.02 4.02 0 0 0 -3.58 2.21l-1.89 2.79h-3v-4c0-11.5 7.163-16 16-16a16 16 0 0 1 16 16z" fill="#3e3d42"/><path d="m23 45 2 8 5-4-4-4z" fill="#fff"/><path d="m41 45-2 8-5-4 4-4z" fill="#fff"/><path d="m35.59 28.38 8.85 3.4a13 13 0 0 1 -24.88 0l8.85-3.4a9.988 9.988 0 0 1 7.18 0z" fill="#b4e6ee"/><path d="m51 47.36v-13.36a10.986 10.986 0 0 0 -2.3-6.71 2.947 2.947 0 0 0 .3-1.29v-7c0-.09-.01-.17-.01-.26a6.992 6.992 0 0 0 -3.99-12.74 6.677 6.677 0 0 0 -1.79.26 16.888 16.888 0 0 0 -11.21-4.26c-10.8 0-17 6.2-17 17v7a3.009 3.009 0 0 0 3 3h.05a14 14 0 0 0 7.34 11.33l-.31 3.67h-5.08a9.014 9.014 0 0 0 -9 9v8a1 1 0 0 0 1 1h40a1 1 0 0 0 1-1v-8a8.914 8.914 0 0 0 -2-5.64zm-2-13.36v11.52a8.94 8.94 0 0 0 -5-1.52v-8.83a13.834 13.834 0 0 0 1.95-6.17h.05a3 3 0 0 0 1.27-.29 8.953 8.953 0 0 1 1.73 5.29zm-3-7v-3h1v2a1 1 0 0 1 -1 1zm-1-19a4.981 4.981 0 0 1 3.76 8.27 16.923 16.923 0 0 0 -3.82-8.27zm-27 19a1 1 0 0 1 -1-1v-2h1zm-1-5v-3c0-13.05 9.4-15 15-15a15.018 15.018 0 0 1 15 15v3h-1.38l-2.24-4.47a3.1 3.1 0 0 0 -2.18-1.61 4.028 4.028 0 0 1 -2.29-1.38 3.972 3.972 0 0 1 -.91-2.54 1 1 0 0 0 -2 0 5 5 0 0 1 -5 5h-6.53a5.046 5.046 0 0 0 -4.44 2.7l-1.56 2.3zm3 6v-4.69l1.72-2.54a1.091 1.091 0 0 0 .06-.11 3.044 3.044 0 0 1 2.69-1.66h6.53a7 7 0 0 0 6.09-3.55c.09.13.18.25.28.37a6.041 6.041 0 0 0 3.43 2.06 1.1 1.1 0 0 1 .8.55l2.4 4.81v4.76a12.338 12.338 0 0 1 -.25 2.45l-7.8-3a10.981 10.981 0 0 0 -7.9 0l-7.8 3a12.338 12.338 0 0 1 -.25-2.45zm.83 4.37 7.94-3.06a8.994 8.994 0 0 1 6.46 0l7.94 3.06a11.991 11.991 0 0 1 -22.34 0zm17.58 13.63h1.31l-1.31 5.25-2.91-2.33zm-6.41 3.59-4.96-4.97.28-3.44a13.765 13.765 0 0 0 9.36 0l.28 3.44zm6.92-5.59-.31-3.67a13.9 13.9 0 0 0 3.39-2.55v6.22zm-13.33 2 2.91 2.92-2.91 2.33-1.31-5.25zm25.41 14h-38v-7a7.008 7.008 0 0 1 7-7h2.22l1.81 7.24a1.01 1.01 0 0 0 .65.71 1.127 1.127 0 0 0 .32.05 1.02 1.02 0 0 0 .62-.22l4.31-3.44 1.07 1.07v5.59h2v-5.59l1.07-1.07 4.31 3.44a1.02 1.02 0 0 0 .62.22 1.127 1.127 0 0 0 .32-.05 1.01 1.01 0 0 0 .65-.71l1.81-7.24h2.22a7.008 7.008 0 0 1 7 7z"/><path d="m27 21a1 1 0 0 0 -1 1v2a1 1 0 0 0 2 0v-2a1 1 0 0 0 -1-1z"/><path d="m37 25a1 1 0 0 0 1-1v-2a1 1 0 0 0 -2 0v2a1 1 0 0 0 1 1z"/></svg>