<?xml version="1.0" encoding="UTF-8"?>
<svg xmlns="http://www.w3.org/2000/svg" id="Avatar" viewBox="0 0 64 64" width="512" height="512"><path d="M49,29.3V17A14,14,0,0,0,35,3H29A14,14,0,0,0,15,17V28.106a6.978,6.978,0,0,0-.554,9.143A8,8,0,0,0,20,51a7.889,7.889,0,0,0,.788-.04A30.84,30.84,0,0,0,32,53a29.863,29.863,0,0,0,13.39-3L49,47.7c3.12-2.5,5-5.71,5-9.2S52.12,31.8,49,29.3Z" style="fill:#3e3d42"/><path d="M44,45H38L37,33H27L26,45H20a8,8,0,0,0-8,8v8H52V53A8,8,0,0,0,44,45Z" style="fill:#ffcbbe"/><path d="M44.94,28.86A13.2,13.2,0,0,1,32.63,40.99,13,13,0,0,1,19,28V27A12,12,0,0,1,31,15h1.04A15,15,0,0,0,44.94,28.86Z" style="fill:#ffddce"/><path d="M42,53.29V61H22V53.29A18.434,18.434,0,0,0,32,56,18.434,18.434,0,0,0,42,53.29Z" style="fill:#ec455a"/><path d="M22,45V61H12V53a8,8,0,0,1,8-8Z" style="fill:#5bcbfa"/><path d="M52,53v8H42V45h2A8,8,0,0,1,52,53Z" style="fill:#5bcbfa"/><path d="M35.59,30.38l8.08,3.11a12.908,12.908,0,0,1-23.44.04l8.18-3.15A9.988,9.988,0,0,1,35.59,30.38Z" style="fill:#b4e6ee"/><path d="M55,38.5c0-3.53-1.77-6.94-5-9.67V17A15.018,15.018,0,0,0,35,2H29A15.018,15.018,0,0,0,14,17V27.72a7.959,7.959,0,0,0-.83,9.43A8.859,8.859,0,0,0,11,43a9.05,9.05,0,0,0,1.52,5A8.94,8.94,0,0,0,11,53v8a1,1,0,0,0,1,1H52a1,1,0,0,0,1-1V53a8.938,8.938,0,0,0-2.05-5.71A12.264,12.264,0,0,0,55,38.5ZM21,60H13V53a7.008,7.008,0,0,1,7-7h1Zm20,0H23V55a20.259,20.259,0,0,0,9,2,20.259,20.259,0,0,0,9-2Zm0-7.28A17.6,17.6,0,0,1,32,55a17.6,17.6,0,0,1-9-2.28V46h3a1.01,1.01,0,0,0,1-.92l.32-3.89A13.914,13.914,0,0,0,32,42c.22,0,.45,0,.68-.01a13.759,13.759,0,0,0,4-.82L37,45.08A1.01,1.01,0,0,0,38,46h3ZM28.77,31.31a8.994,8.994,0,0,1,6.46,0l7.02,2.71a11.86,11.86,0,0,1-18.53,2.67,12.107,12.107,0,0,1-2.08-2.63Zm-7.99.94A12.133,12.133,0,0,1,20,28V27A11.007,11.007,0,0,1,31,16h.13a16.035,16.035,0,0,0,12.7,13.69,13.427,13.427,0,0,1-.7,2.52l-7.18-2.76a10.981,10.981,0,0,0-7.9,0ZM38.92,44l-.31-3.71a14.463,14.463,0,0,0,7.33-11.34,1.013,1.013,0,0,0-.86-1.08A14.009,14.009,0,0,1,33.04,14.94a1,1,0,0,0-1-.94H31A13.012,13.012,0,0,0,18,27v1a13.861,13.861,0,0,0,4.34,10.13,13.632,13.632,0,0,0,3.05,2.21L25.08,44H20a8.965,8.965,0,0,0-6.11,2.41A6.994,6.994,0,0,1,13,43a6.918,6.918,0,0,1,2.14-5.03,1,1,0,0,0,.1-1.33,5.977,5.977,0,0,1,.47-7.83.984.984,0,0,0,.29-.7V17A13.012,13.012,0,0,1,29,4h6A13.012,13.012,0,0,1,48,17V29.3a1.022,1.022,0,0,0,.37.78C51.36,32.47,53,35.46,53,38.5a10.314,10.314,0,0,1-3.49,7.4A8.9,8.9,0,0,0,44,44ZM51,53v7H43V46h1A7.008,7.008,0,0,1,51,53Z"/><path d="M27,22a1,1,0,0,0-1,1v2a1,1,0,0,0,2,0V23A1,1,0,0,0,27,22Z"/></svg>
