<svg id="Avatar" height="512" viewBox="0 0 64 64" width="512" xmlns="http://www.w3.org/2000/svg"><path d="m35 3h-6a14 14 0 0 0 -14 14v20a8 8 0 0 0 8 8h18a8 8 0 0 0 8-8v-20a14 14 0 0 0 -14-14z" fill="#3e3d42"/><path d="m52 53v8h-40v-8a7.985 7.985 0 0 1 5.12-7.46 7.845 7.845 0 0 1 2.88-.54h24a8 8 0 0 1 8 8z" fill="#a094f7"/><path d="m32 50a5.658 5.658 0 0 1 -5.648-5.99l.648-11.01h10l.648 11.01a5.658 5.658 0 0 1 -5.648 5.99z" fill="#ffcbbe"/><g fill="#ffddce"><path d="m20 55v6h-8v-8a7.985 7.985 0 0 1 5.12-7.46 16.852 16.852 0 0 1 2.88 9.46z"/><path d="m44 55v6h8v-8a7.985 7.985 0 0 0 -5.12-7.46 16.852 16.852 0 0 0 -2.88 9.46z"/><path d="m45 20.46v7.54a13 13 0 0 1 -26 0v-7.54a3.98 3.98 0 0 0 2-3.46v-2h22v2a3.98 3.98 0 0 0 2 3.46z"/></g><path d="m35.59 28.38 8.85 3.4a13 13 0 0 1 -24.88 0l8.85-3.4a9.988 9.988 0 0 1 7.18 0z" fill="#b4e6ee"/><path d="m46.25 44.3a9 9 0 0 0 3.75-7.3v-20a15.018 15.018 0 0 0 -15-15h-6a15.018 15.018 0 0 0 -15 15v20a8.963 8.963 0 0 0 3.75 7.29 8.169 8.169 0 0 0 -.99.32 9.037 9.037 0 0 0 -5.76 8.39v8a1 1 0 0 0 1 1h40a1 1 0 0 0 1-1v-8a9 9 0 0 0 -6.75-8.7zm-30.25-7.3v-20a13.012 13.012 0 0 1 13-13h6a13.012 13.012 0 0 1 13 13v20a7.008 7.008 0 0 1 -7 7h-2.35v-.05l-.21-3.53a14.02 14.02 0 0 0 7.56-12.42v-7.54a1 1 0 0 0 -.5-.87 2.978 2.978 0 0 1 -1.5-2.59v-2a1 1 0 0 0 -1-1h-22a1 1 0 0 0 -1 1v2a2.978 2.978 0 0 1 -1.5 2.59 1 1 0 0 0 -.5.87v7.54a14.02 14.02 0 0 0 7.56 12.42l-.21 3.53v.05h-2.35a7.008 7.008 0 0 1 -7-7zm16 3a12.02 12.02 0 0 1 -11.17-7.63l7.94-3.06a8.994 8.994 0 0 1 6.46 0l7.94 3.06a12.02 12.02 0 0 1 -11.17 7.63zm4.65 4.07a4.474 4.474 0 0 1 -.02.82 4.662 4.662 0 0 1 -9.26-.01 4.343 4.343 0 0 1 -.02-.81l.17-2.82a13.755 13.755 0 0 0 8.96 0zm7.35-23.07v7a12.338 12.338 0 0 1 -.25 2.45l-7.8-3a10.981 10.981 0 0 0 -7.9 0l-7.8 3a12.338 12.338 0 0 1 -.25-2.45v-7a5.011 5.011 0 0 0 2-4v-1h20v1a5.011 5.011 0 0 0 2 4zm-25 39h-6v-7a7.041 7.041 0 0 1 3.74-6.18 15.84 15.84 0 0 1 2.26 8.18zm24-5v5h-22v-5a17.79 17.79 0 0 0 -2.34-8.87 7.512 7.512 0 0 1 1.34-.13h5.56a6.647 6.647 0 0 0 12.88 0h5.56a7.423 7.423 0 0 1 1.34.13 17.79 17.79 0 0 0 -2.34 8.87zm8 5h-6v-5a15.885 15.885 0 0 1 2.27-8.19 7.026 7.026 0 0 1 3.73 6.19z"/><path d="m27 25a1 1 0 0 0 1-1v-2a1 1 0 0 0 -2 0v2a1 1 0 0 0 1 1z"/><path d="m37 25a1 1 0 0 0 1-1v-2a1 1 0 0 0 -2 0v2a1 1 0 0 0 1 1z"/></svg>