<?xml version="1.0" encoding="UTF-8"?>
<svg xmlns="http://www.w3.org/2000/svg" id="Avatar" viewBox="0 0 64 64" width="512" height="512"><circle cx="18" cy="9" r="6" style="fill:#3e3d42"/><circle cx="46" cy="9" r="6" style="fill:#3e3d42"/><path d="M42,37H22a7,7,0,0,1-7-7V20A17,17,0,0,1,32,3h0A17,17,0,0,1,49,20V30A7,7,0,0,1,42,37Z" style="fill:#57565c"/><path d="M20,45H44a8,8,0,0,1,8,8v8a0,0,0,0,1,0,0H12a0,0,0,0,1,0,0V53A8,8,0,0,1,20,45Z" style="fill:#ec455a"/><path d="M32,50h0a5.658,5.658,0,0,1-5.648-5.99L27,33H37l.648,11.01A5.658,5.658,0,0,1,32,50Z" style="fill:#ffcbbe"/><path d="M32,41h0A13,13,0,0,1,19,28V19a2,2,0,0,1,2-2H34l2-4,3,4h4a2,2,0,0,1,2,2v9A13,13,0,0,1,32,41Z" style="fill:#ffddce"/><path d="M35.59,28.38l8.85,3.4a13,13,0,0,1-24.88,0l8.85-3.4A9.988,9.988,0,0,1,35.59,28.38Z" style="fill:#b4e6ee"/><path d="M44,44H38.65v-.05l-.21-3.53A14.05,14.05,0,0,0,41.78,38H42a8.011,8.011,0,0,0,8-8V20a18.2,18.2,0,0,0-.67-4.85A7,7,0,1,0,40.81,4.31a17.9,17.9,0,0,0-17.61.01,6.994,6.994,0,1,0-8.52,10.83A18.093,18.093,0,0,0,14,20V30a8.011,8.011,0,0,0,8,8h.22a14.05,14.05,0,0,0,3.34,2.42l-.21,3.5V44H20a9.014,9.014,0,0,0-9,9v8a1,1,0,0,0,1,1H52a1,1,0,0,0,1-1V53A9.014,9.014,0,0,0,44,44ZM46,4a4.989,4.989,0,0,1,2.67,9.21,17.977,17.977,0,0,0-3.94-5.94,18.514,18.514,0,0,0-2.21-1.85A5,5,0,0,1,46,4ZM13,9a4.993,4.993,0,0,1,8.48-3.58,18.127,18.127,0,0,0-6.14,7.8A5.031,5.031,0,0,1,13,9Zm3,21V20a16,16,0,0,1,32,0V30a6.017,6.017,0,0,1-4.36,5.77A13.937,13.937,0,0,0,46,28V19a3.009,3.009,0,0,0-3-3H39.5l-2.7-3.6a1,1,0,0,0-.89-.4,1.014,1.014,0,0,0-.8.55L33.38,16H21a3.009,3.009,0,0,0-3,3v9a13.937,13.937,0,0,0,2.36,7.77A6.017,6.017,0,0,1,16,30Zm19.95-2.55a10.981,10.981,0,0,0-7.9,0l-7.8,3A12.338,12.338,0,0,1,20,28V19a1,1,0,0,1,1-1H34a.988.988,0,0,0,.89-.55l1.28-2.56L38.2,17.6a1.014,1.014,0,0,0,.8.4h4a1,1,0,0,1,1,1v9a12.338,12.338,0,0,1-.25,2.45ZM20.83,32.37l7.94-3.06a8.994,8.994,0,0,1,6.46,0l7.94,3.06a11.991,11.991,0,0,1-22.34,0ZM31,52H28v2h3v2H28v2h3v2H13V53a7.008,7.008,0,0,1,7-7h5.56A6.658,6.658,0,0,0,31,50.92Zm-3.66-7.65c0-.08,0-.17.01-.28l.17-2.82a13.755,13.755,0,0,0,8.96,0l.17,2.82A4.653,4.653,0,0,1,32,49,4.663,4.663,0,0,1,27.34,44.35ZM51,60H33V58h3V56H33V54h3V52H33V50.92A6.666,6.666,0,0,0,38.45,46H44a7.008,7.008,0,0,1,7,7Z"/><path d="M27,21a1,1,0,0,0-1,1v2a1,1,0,0,0,2,0V22A1,1,0,0,0,27,21Z"/><path d="M37,25a1,1,0,0,0,1-1V22a1,1,0,0,0-2,0v2A1,1,0,0,0,37,25Z"/></svg>
