<svg id="Avatar" height="512" viewBox="0 0 64 64" width="512" xmlns="http://www.w3.org/2000/svg"><path d="m20 45h24a8 8 0 0 1 8 8v8a0 0 0 0 1 0 0h-40a0 0 0 0 1 0 0v-8a8 8 0 0 1 8-8z" fill="#5bcbfa"/><path d="m38 45-6 11-6-11 1-12h10z" fill="#ffcbbe"/><path d="m42 37h-20a7 7 0 0 1 -7-7v-13a14 14 0 0 1 14-14h6a14 14 0 0 1 14 14v13a7 7 0 0 1 -7 7z" fill="#3e3d42"/><path d="m32 41a13 13 0 0 1 -13-13v-9a2 2 0 0 1 2-2h13l2-4 3 4h4a2 2 0 0 1 2 2v9a13 13 0 0 1 -13 13z" fill="#ffddce"/><path d="m35.59 28.38 8.85 3.4a13 13 0 0 1 -24.88 0l8.85-3.4a9.988 9.988 0 0 1 7.18 0z" fill="#b4e6ee"/><path d="m44 44h-5.08l-.31-3.66a14.286 14.286 0 0 0 3.17-2.34h.22a8.011 8.011 0 0 0 8-8v-13a15.018 15.018 0 0 0 -15-15h-6a15.018 15.018 0 0 0 -15 15v13a8.011 8.011 0 0 0 8 8h.22a14.059 14.059 0 0 0 3.17 2.34l-.31 3.66h-5.08a9.014 9.014 0 0 0 -9 9v8a1 1 0 0 0 1 1h40a1 1 0 0 0 1-1v-8a9.014 9.014 0 0 0 -9-9zm-28-14v-13a13.012 13.012 0 0 1 13-13h6a13.012 13.012 0 0 1 13 13v13a6.017 6.017 0 0 1 -4.36 5.77 13.937 13.937 0 0 0 2.36-7.77v-9a3.009 3.009 0 0 0 -3-3h-3.5l-2.7-3.6a.986.986 0 0 0 -.89-.4 1.014 1.014 0 0 0 -.8.55l-1.73 3.45h-12.38a3.009 3.009 0 0 0 -3 3v9a13.937 13.937 0 0 0 2.36 7.77 6.017 6.017 0 0 1 -4.36-5.77zm19.95-2.55a10.981 10.981 0 0 0 -7.9 0l-7.8 3a12.338 12.338 0 0 1 -.25-2.45v-9a1 1 0 0 1 1-1h13a.988.988 0 0 0 .89-.55l1.28-2.56 2.03 2.71a1.014 1.014 0 0 0 .8.4h4a1 1 0 0 1 1 1v9a12.338 12.338 0 0 1 -.25 2.45zm-15.12 4.92 7.94-3.06a8.994 8.994 0 0 1 6.46 0l7.94 3.06a11.991 11.991 0 0 1 -22.34 0zm16.15 12.41-4.98 9.13-4.98-9.13.3-3.6a13.765 13.765 0 0 0 9.36 0zm14.02 15.22h-38v-7a7.008 7.008 0 0 1 7-7h5.41l5.71 10.48a1 1 0 0 0 1.76 0l5.71-10.48h5.41a7.008 7.008 0 0 1 7 7z"/><path d="m27 21a1 1 0 0 0 -1 1v2a1 1 0 0 0 2 0v-2a1 1 0 0 0 -1-1z"/><path d="m37 25a1 1 0 0 0 1-1v-2a1 1 0 0 0 -2 0v2a1 1 0 0 0 1 1z"/></svg>