<svg id="Avatar" height="512" viewBox="0 0 64 64" width="512" xmlns="http://www.w3.org/2000/svg"><path d="m21 29a6 6 0 0 0 -6 6v3.25l-3 3.75h6a6 6 0 0 0 6-6v-7z" fill="#414042"/><path d="m44 29a6 6 0 0 1 6 6v3.25l3 3.75h-6a6 6 0 0 1 -6-6v-7z" fill="#414042"/><path d="m20 45h24a8 8 0 0 1 8 8v8a0 0 0 0 1 0 0h-40a0 0 0 0 1 0 0v-8a8 8 0 0 1 8-8z" fill="#5bcbfa"/><g fill="#ffcbbe"><path d="m38 45-6 6-6-6 1-12h10z"/><path d="m46 21h2a0 0 0 0 1 0 0v7a0 0 0 0 1 0 0h-2a2 2 0 0 1 -2-2v-3a2 2 0 0 1 2-2z" transform="matrix(-1 0 0 -1 92 49)"/><path d="m18 21h2a0 0 0 0 1 0 0v7a0 0 0 0 1 0 0h-2a2 2 0 0 1 -2-2v-3a2 2 0 0 1 2-2z"/></g><path d="m32 41a13 13 0 0 1 -13-13v-19l26 1v18a13 13 0 0 1 -13 13z" fill="#ffddce"/><path d="m48 19v4h-3l-2.51-5.02a2.088 2.088 0 0 0 -1.49-1.08 5 5 0 0 1 -4-4.9 6 6 0 0 1 -6 6h-6.53a4.02 4.02 0 0 0 -3.58 2.21l-1.89 2.79h-3v-4c0-11.5 7.163-16 16-16a16 16 0 0 1 16 16z" fill="#3e3d42"/><path d="m23 45v9l9-3-6-6z" fill="#fff"/><path d="m41 45v9l-9-3 6-6z" fill="#fff"/><path d="m35.59 28.38 8.85 3.4a13 13 0 0 1 -24.88 0l8.85-3.4a9.988 9.988 0 0 1 7.18 0z" fill="#b4e6ee"/><path d="m53.78 41.38-2.78-3.48v-2.9a6.956 6.956 0 0 0 -3.83-6.24 3 3 0 0 0 1.83-2.76v-7a17.024 17.024 0 0 0 -17-17c-10.8 0-17 6.2-17 17v7a3 3 0 0 0 2.51 2.95 6.971 6.971 0 0 0 -3.51 6.05v2.9l-2.78 3.48a.981.981 0 0 0 -.12 1.05 1 1 0 0 0 .9.57h6a7 7 0 0 0 6.04-3.5 14.368 14.368 0 0 0 1.35.83l-.31 3.67h-5.08a9.014 9.014 0 0 0 -9 9v8a1 1 0 0 0 1 1h40a1 1 0 0 0 1-1v-8a9.014 9.014 0 0 0 -9-9h-5.08l-.31-3.67a12.585 12.585 0 0 0 2.07-1.37 7.044 7.044 0 0 0 6.32 4.04h6a1 1 0 0 0 .9-.57.981.981 0 0 0 -.12-1.05zm-36.78-22.38c0-13.05 9.4-15 15-15a15.018 15.018 0 0 1 15 15v3h-1.38l-2.24-4.47a3.1 3.1 0 0 0 -2.18-1.61 4.028 4.028 0 0 1 -2.29-1.38 3.972 3.972 0 0 1 -.91-2.54 1 1 0 0 0 -2 0 5 5 0 0 1 -5 5h-6.53a5.046 5.046 0 0 0 -4.44 2.7l-1.56 2.3h-1.47zm30 5v2a1 1 0 0 1 -1 1v-3zm-3-.76v4.76a12.338 12.338 0 0 1 -.25 2.45l-7.8-3a10.981 10.981 0 0 0 -7.9 0l-7.8 3a12.338 12.338 0 0 1 -.25-2.45v-4.69l1.72-2.54a1.091 1.091 0 0 0 .06-.11 3.044 3.044 0 0 1 2.69-1.66h6.53a7 7 0 0 0 6.09-3.55c.09.13.18.25.28.37a6.041 6.041 0 0 0 3.43 2.06 1.1 1.1 0 0 1 .8.55zm-27 2.76v-2h1v3a1 1 0 0 1 -1-1zm1 15h-3.92l1.7-2.12a1.026 1.026 0 0 0 .22-.63v-3.25a4.973 4.973 0 0 1 2.29-4.18 13.873 13.873 0 0 0 4.18 7.4 5.011 5.011 0 0 1 -4.47 2.78zm6 5h1.59l4.56 4.56-6.15 2.05zm3.04-1.38.28-3.44a13.765 13.765 0 0 0 9.36 0l.28 3.44-4.96 4.97zm13.96 10.38a.939.939 0 0 0 .58-.19.983.983 0 0 0 .42-.81v-8h2a7.008 7.008 0 0 1 7 7v7h-38v-7a7.008 7.008 0 0 1 7-7h2v8a.983.983 0 0 0 .42.81.939.939 0 0 0 .58.19 1.185 1.185 0 0 0 .32-.05l8.68-2.9 8.68 2.9a1.185 1.185 0 0 0 .32.05zm-1-9v6.61l-6.15-2.05 4.56-4.56zm-8-6a12.02 12.02 0 0 1 -11.17-7.63l7.94-3.06a8.994 8.994 0 0 1 6.46 0l7.94 3.06a12.02 12.02 0 0 1 -11.17 7.63zm15 1a5.016 5.016 0 0 1 -4.75-3.5 14 14 0 0 0 3.54-7.15 5.022 5.022 0 0 1 3.21 4.65v3.25a1.026 1.026 0 0 0 .22.63l1.7 2.12z"/><path d="m27 25a1 1 0 0 0 1-1v-2a1 1 0 0 0 -2 0v2a1 1 0 0 0 1 1z"/><path d="m37 25a1 1 0 0 0 1-1v-2a1 1 0 0 0 -2 0v2a1 1 0 0 0 1 1z"/></svg>