<svg id="Avatar" height="512" viewBox="0 0 64 64" width="512" xmlns="http://www.w3.org/2000/svg"><path d="m54.88 26c0 1.97-1.989 3.652-2.475 5.469-.5 1.88.365 4.328-.588 5.974-.966 1.669-3.528 2.137-4.883 3.491s-1.823 3.918-3.492 4.884c-1.646.952-4.094.085-5.973.587-1.817.486-3.5 2.475-5.469 2.475s-3.652-1.989-5.469-2.475c-1.88-.5-4.328.365-5.974-.588-1.669-.966-2.137-3.528-3.491-4.883s-3.918-1.823-4.884-3.492c-.952-1.646-.085-4.094-.587-5.973-.486-1.817-2.475-3.499-2.475-5.469s1.989-3.652 2.475-5.469c.5-1.88-.365-4.328.588-5.974.966-1.669 3.528-2.137 4.883-3.491s1.823-3.918 3.492-4.884c1.642-.952 4.094-.082 5.973-.582 1.817-.491 3.499-2.48 5.469-2.48s3.652 1.989 5.469 2.48c1.88.5 4.328-.365 5.974.588 1.669.966 2.137 3.528 3.491 4.883s3.918 1.823 4.884 3.492c.952 1.646.085 4.094.587 5.973.486 1.812 2.475 3.494 2.475 5.464z" fill="#3e3d42"/><path d="m20 45h24a8 8 0 0 1 8 8v8a0 0 0 0 1 0 0h-40a0 0 0 0 1 0 0v-8a8 8 0 0 1 8-8z" fill="#ffddce"/><path d="m20 45h24v16h-24z" fill="#eb9a43"/><g fill="#ffcbbe"><path d="m32 50a5.658 5.658 0 0 1 -5.648-5.99l.648-11.01h10l.648 11.01a5.658 5.658 0 0 1 -5.648 5.99z"/><path d="m47 21h2a0 0 0 0 1 0 0v7a0 0 0 0 1 0 0h-2a2 2 0 0 1 -2-2v-3a2 2 0 0 1 2-2z" transform="matrix(-1 0 0 -1 94 49)"/><path d="m17 21h2a0 0 0 0 1 0 0v7a0 0 0 0 1 0 0h-2a2 2 0 0 1 -2-2v-3a2 2 0 0 1 2-2z"/></g><path d="m44.92 18h-4.92a5.99 5.99 0 0 1 -5.91-5h-9.09a6 6 0 0 0 -6 6v9a13 13 0 0 0 26 0v-9a6.634 6.634 0 0 0 -.08-1z" fill="#ffddce"/><path d="m35.59 28.38 8.85 3.4a13 13 0 0 1 -24.88 0l8.85-3.4a9.988 9.988 0 0 1 7.18 0z" fill="#b4e6ee"/><path d="m54.41 22.26a7.437 7.437 0 0 1 -1.03-1.99 8.331 8.331 0 0 1 -.12-2.34 6.837 6.837 0 0 0 -.58-3.87 7.123 7.123 0 0 0 -3.11-2.47 8.327 8.327 0 0 1 -1.93-1.22 8.3 8.3 0 0 1 -1.23-1.94 7.207 7.207 0 0 0 -2.47-3.12 6.919 6.919 0 0 0 -3.87-.57 8.353 8.353 0 0 1 -2.34-.12 7.437 7.437 0 0 1 -1.99-1.03 7.165 7.165 0 0 0 -3.74-1.47 7.165 7.165 0 0 0 -3.74 1.47 7.437 7.437 0 0 1 -1.99 1.03 7.993 7.993 0 0 1 -2.34.12 6.837 6.837 0 0 0 -3.87.58 7.123 7.123 0 0 0 -2.47 3.11 8.327 8.327 0 0 1 -1.22 1.93 8.3 8.3 0 0 1 -1.94 1.23 7.207 7.207 0 0 0 -3.12 2.47 6.919 6.919 0 0 0 -.57 3.87 8.426 8.426 0 0 1 -.12 2.35 7.541 7.541 0 0 1 -1.03 1.98 7.165 7.165 0 0 0 -1.47 3.74 7.165 7.165 0 0 0 1.47 3.74 7.437 7.437 0 0 1 1.03 1.99 8.331 8.331 0 0 1 .12 2.34 6.837 6.837 0 0 0 .58 3.87 7.123 7.123 0 0 0 3.11 2.47 8.327 8.327 0 0 1 1.93 1.22 8.172 8.172 0 0 1 1.23 1.95c.12.22.24.44.37.66a9.016 9.016 0 0 0 -6.96 8.76v8a1 1 0 0 0 1 1h40a1 1 0 0 0 1-1v-8a9.016 9.016 0 0 0 -6.96-8.76c.13-.22.25-.44.37-.66a8.2 8.2 0 0 1 1.22-1.94 8.3 8.3 0 0 1 1.94-1.23 7.207 7.207 0 0 0 3.12-2.47 6.919 6.919 0 0 0 .57-3.87 8.426 8.426 0 0 1 .12-2.35 7.541 7.541 0 0 1 1.03-1.98 7.165 7.165 0 0 0 1.47-3.74 7.165 7.165 0 0 0 -1.47-3.74zm-35.41 37.74h-6v-7a7 7 0 0 1 6-6.92zm24 0h-22v-14h4.55a6.662 6.662 0 0 0 12.9 0h4.55zm-14.23-30.69a8.994 8.994 0 0 1 6.46 0l7.94 3.06a11.991 11.991 0 0 1 -22.34 0zm-8.52 1.14a12.338 12.338 0 0 1 -.25-2.45v-9a5 5 0 0 1 5-5h8.29a6.972 6.972 0 0 0 6.71 5h4v9a12.338 12.338 0 0 1 -.25 2.45l-7.8-3a10.981 10.981 0 0 0 -7.9 0zm16.4 13.62a4.658 4.658 0 1 1 -9.3 0l.17-2.82a13.755 13.755 0 0 0 8.96 0zm14.35 8.93v7h-6v-13.92a7 7 0 0 1 6 6.92zm1.72-24.34a9.22 9.22 0 0 0 -1.27 2.55 9.7 9.7 0 0 0 -.19 2.94 5.509 5.509 0 0 1 -.3 2.79 5.652 5.652 0 0 1 -2.32 1.7 9.472 9.472 0 0 0 -2.42 1.59 10.031 10.031 0 0 0 -1.59 2.42 13 13 0 0 1 -.78 1.35h-5.2v-.05l-.21-3.53a14.014 14.014 0 0 0 7.51-11.42h1.05a3.009 3.009 0 0 0 3-3v-3a3.009 3.009 0 0 0 -3-3h-1v-1a7.724 7.724 0 0 0 -.09-1.15 1.008 1.008 0 0 0 -.99-.85h-4.92a4.967 4.967 0 0 1 -4.92-4.16 1 1 0 0 0 -.99-.84h-9.09a6.912 6.912 0 0 0 -4.2 1.4 7.038 7.038 0 0 0 -2.8 5.6v1h-1a3.009 3.009 0 0 0 -3 3v3a3.009 3.009 0 0 0 3 3h1.05a14.014 14.014 0 0 0 7.51 11.42l-.21 3.53v.05h-5.2a13 13 0 0 1 -.78-1.35 10.026 10.026 0 0 0 -1.6-2.43 9.473 9.473 0 0 0 -2.41-1.58 5.547 5.547 0 0 1 -2.31-1.7 5.393 5.393 0 0 1 -.31-2.79 10.024 10.024 0 0 0 -.18-2.94 9.535 9.535 0 0 0 -1.28-2.55 5.521 5.521 0 0 1 -1.16-2.66 5.521 5.521 0 0 1 1.16-2.66 9.22 9.22 0 0 0 1.27-2.55 9.7 9.7 0 0 0 .19-2.94 5.509 5.509 0 0 1 .3-2.79 5.652 5.652 0 0 1 2.32-1.7 9.472 9.472 0 0 0 2.42-1.59 9.473 9.473 0 0 0 1.58-2.41 5.652 5.652 0 0 1 1.7-2.32 5.494 5.494 0 0 1 2.79-.3 9.61 9.61 0 0 0 2.93-.18 9.448 9.448 0 0 0 2.56-1.28 5.521 5.521 0 0 1 2.66-1.16 5.521 5.521 0 0 1 2.66 1.16 9.22 9.22 0 0 0 2.55 1.27 9.391 9.391 0 0 0 2.94.19 5.494 5.494 0 0 1 2.79.3 5.652 5.652 0 0 1 1.7 2.32 9.472 9.472 0 0 0 1.59 2.42 9.473 9.473 0 0 0 2.41 1.58 5.547 5.547 0 0 1 2.31 1.7 5.393 5.393 0 0 1 .31 2.79 10.024 10.024 0 0 0 .18 2.94 9.535 9.535 0 0 0 1.28 2.55 5.521 5.521 0 0 1 1.16 2.66 5.521 5.521 0 0 1 -1.16 2.66zm-6.72-1.66v-5h1a1 1 0 0 1 1 1v3a1 1 0 0 1 -1 1zm-28-5v5h-1a1 1 0 0 1 -1-1v-3a1 1 0 0 1 1-1z"/><path d="m27 21a1 1 0 0 0 -1 1v2a1 1 0 0 0 2 0v-2a1 1 0 0 0 -1-1z"/><path d="m37 21a1 1 0 0 0 -1 1v2a1 1 0 0 0 2 0v-2a1 1 0 0 0 -1-1z"/></svg>