<?xml version="1.0" encoding="UTF-8"?>
<svg xmlns="http://www.w3.org/2000/svg" id="Avatar" viewBox="0 0 64 64" width="512" height="512"><path d="M55.32,26c0,1.683-2.8,3.03-3.154,4.605-.37,1.626,1.556,4.05.848,5.517-.719,1.491-3.822,1.491-4.845,2.772s-.342,4.311-1.629,5.339-4.075-.315-5.566.4c-1.467.708-2.159,3.734-3.785,4.1-1.574.358-3.506-2.06-5.189-2.06s-3.615,2.418-5.19,2.06c-1.626-.37-2.318-3.4-3.785-4.1-1.491-.72-4.286.618-5.566-.405s-.6-4.052-1.629-5.339-4.126-1.281-4.845-2.772c-.708-1.467,1.219-3.891.849-5.517C11.476,29.03,8.68,27.683,8.68,26s2.8-3.03,3.154-4.605c.37-1.626-1.556-4.05-.848-5.517.719-1.491,3.822-1.491,4.845-2.772S16.173,8.8,17.46,7.767s4.075.315,5.566-.4c1.467-.708,2.159-3.734,3.785-4.1C28.385,2.9,30.317,5.32,32,5.32S35.615,2.9,37.19,3.26c1.626.37,2.318,3.4,3.785,4.1,1.491.72,4.286-.618,5.566.4s.6,4.052,1.629,5.339,4.126,1.281,4.845,2.772c.708,1.467-1.219,3.891-.849,5.517C52.524,22.97,55.32,24.317,55.32,26Z" style="fill:#3e3d42"/><path d="M20,45H44a8,8,0,0,1,8,8v8a0,0,0,0,1,0,0H12a0,0,0,0,1,0,0V53A8,8,0,0,1,20,45Z" style="fill:#b9b1f1"/><path d="M32,50h0a5.658,5.658,0,0,1-5.648-5.99L27,33H37l.648,11.01A5.658,5.658,0,0,1,32,50Z" style="fill:#ffcbbe"/><path d="M44.94,28.86A13.2,13.2,0,0,1,32.63,40.99,13,13,0,0,1,19,28V27A12,12,0,0,1,31,15h1.04A15,15,0,0,0,44.94,28.86Z" style="fill:#ffddce"/><path d="M35.59,30.38l8.08,3.11a12.908,12.908,0,0,1-23.44.04l8.18-3.15A9.988,9.988,0,0,1,35.59,30.38Z" style="fill:#b4e6ee"/><path d="M54.41,29.22c.89-.89,1.91-1.9,1.91-3.22s-1.02-2.33-1.92-3.23a4.645,4.645,0,0,1-1.25-1.59,4.842,4.842,0,0,1,.44-2.07c.41-1.18.88-2.51.32-3.66-.56-1.18-1.91-1.64-3.1-2.06a4.874,4.874,0,0,1-1.86-.9,4.929,4.929,0,0,1-.48-2.04c-.14-1.24-.29-2.65-1.31-3.46-1-.8-2.41-.65-3.65-.51a4.883,4.883,0,0,1-2.11-.02,4.895,4.895,0,0,1-1.28-1.59c-.66-1.08-1.42-2.29-2.71-2.58-1.23-.29-2.42.46-3.47,1.12A4.821,4.821,0,0,1,32,4.32a4.79,4.79,0,0,1-1.93-.91C29.02,2.75,27.83,2,26.59,2.28c-1.29.3-2.04,1.51-2.71,2.59a4.778,4.778,0,0,1-1.29,1.59,4.785,4.785,0,0,1-2.09.02c-1.25-.14-2.66-.3-3.66.51-1.02.8-1.17,2.21-1.31,3.46a4.929,4.929,0,0,1-.48,2.04,5.02,5.02,0,0,1-1.86.91c-1.19.41-2.53.87-3.1,2.04s-.09,2.49.32,3.67a4.8,4.8,0,0,1,.44,2.06,4.611,4.611,0,0,1-1.26,1.61c-.89.89-1.91,1.9-1.91,3.22S8.7,28.33,9.6,29.23a4.645,4.645,0,0,1,1.25,1.59,4.842,4.842,0,0,1-.44,2.07c-.41,1.18-.88,2.51-.32,3.66.56,1.18,1.91,1.64,3.1,2.06a4.874,4.874,0,0,1,1.86.9,4.929,4.929,0,0,1,.48,2.04,5.605,5.605,0,0,0,.99,3.15A9.02,9.02,0,0,0,11,53v8a1,1,0,0,0,1,1H52a1,1,0,0,0,1-1V53a9.027,9.027,0,0,0-5.51-8.3,5.65,5.65,0,0,0,.98-3.15,4.929,4.929,0,0,1,.48-2.04,5.02,5.02,0,0,1,1.86-.91c1.19-.41,2.53-.87,3.1-2.05.56-1.15.09-2.48-.32-3.66a4.8,4.8,0,0,1-.44-2.06A4.611,4.611,0,0,1,54.41,29.22ZM31,60H13V53a7.008,7.008,0,0,1,7-7h5.55A6.666,6.666,0,0,0,31,50.92ZM28.77,31.31a8.994,8.994,0,0,1,6.46,0l7.02,2.71a11.86,11.86,0,0,1-18.53,2.67,12.107,12.107,0,0,1-2.08-2.63Zm-7.99.94A12.133,12.133,0,0,1,20,28V27A11.007,11.007,0,0,1,31,16h.13a16.035,16.035,0,0,0,12.7,13.69,12.525,12.525,0,0,1-.7,2.52l-7.18-2.76a10.981,10.981,0,0,0-7.9,0Zm7.83,15.29a4.6,4.6,0,0,1-1.26-3.47l.17-2.81A13.982,13.982,0,0,0,32,42c.22,0,.45,0,.68-.01a13.346,13.346,0,0,0,3.8-.74l.17,2.82a4.66,4.66,0,0,1-8.04,3.47ZM51,53v7H33V50.92A6.666,6.666,0,0,0,38.45,46H44A7.008,7.008,0,0,1,51,53Zm2-25.19a5.637,5.637,0,0,0-1.8,2.58,5.88,5.88,0,0,0,.5,3.16c.29.81.61,1.73.41,2.14s-1.13.74-1.95,1.02a5.8,5.8,0,0,0-2.77,1.56,5.8,5.8,0,0,0-.91,3.06c-.09.86-.2,1.83-.57,2.12s-1.33.18-2.18.08a5.885,5.885,0,0,0-3.21.22,2.5,2.5,0,0,0-.41.25H38.65v-.05l-.21-3.57a14.451,14.451,0,0,0,7.5-11.43,1,1,0,0,0-.86-1.08A14.009,14.009,0,0,1,33.04,14.94a1,1,0,0,0-1-.94H31A13.012,13.012,0,0,0,18,27v1a13.861,13.861,0,0,0,4.34,10.13,13.6,13.6,0,0,0,3.22,2.31l-.21,3.51V44H23.89a2.343,2.343,0,0,0-.43-.26,5.931,5.931,0,0,0-3.2-.21,3.96,3.96,0,0,1-2.18-.08c-.36-.29-.47-1.27-.56-2.12a5.8,5.8,0,0,0-.91-3.06,5.8,5.8,0,0,0-2.77-1.56c-.82-.28-1.75-.6-1.95-1.03-.2-.4.12-1.32.4-2.13a5.933,5.933,0,0,0,.52-3.17,5.763,5.763,0,0,0-1.8-2.57c-.63-.62-1.33-1.32-1.33-1.81s.7-1.19,1.32-1.81a5.736,5.736,0,0,0,1.81-2.58,5.985,5.985,0,0,0-.51-3.16c-.29-.81-.61-1.73-.41-2.14s1.13-.74,1.95-1.02a5.8,5.8,0,0,0,2.77-1.56,5.8,5.8,0,0,0,.91-3.06c.09-.86.2-1.83.57-2.12s1.33-.18,2.18-.08a5.894,5.894,0,0,0,3.19-.21,5.748,5.748,0,0,0,2.12-2.34c.46-.74.98-1.58,1.45-1.69.44-.09,1.29.44,1.97.87a5.856,5.856,0,0,0,3,1.22A5.923,5.923,0,0,0,35.01,5.1c.68-.43,1.54-.97,1.96-.86.47.1.99.94,1.45,1.68a5.748,5.748,0,0,0,2.12,2.34,5.931,5.931,0,0,0,3.2.21c.85-.1,1.82-.21,2.18.08s.47,1.26.56,2.12a5.8,5.8,0,0,0,.91,3.06,5.879,5.879,0,0,0,2.77,1.56c.82.28,1.75.6,1.95,1.02s-.12,1.33-.4,2.14a5.933,5.933,0,0,0-.52,3.17,5.763,5.763,0,0,0,1.8,2.57c.63.62,1.33,1.32,1.33,1.81S53.62,27.19,53,27.81Z"/><path d="M27,22a1,1,0,0,0-1,1v2a1,1,0,0,0,2,0V23A1,1,0,0,0,27,22Z"/></svg>
