<svg id="Avatar" height="512" viewBox="0 0 64 64" width="512" xmlns="http://www.w3.org/2000/svg"><path d="m43 27 10 6v-20a6 6 0 0 0 -6-6h-4z" fill="#e28086"/><path d="m21 26-10 6v-20a6 6 0 0 1 6-6h4z" fill="#e28086"/><path d="m49 40-8-6h-18l-8 7v-28a10 10 0 0 1 10-10h14a10 10 0 0 1 10 10z" fill="#f3b1b2"/><path d="m20 45h24a8 8 0 0 1 8 8v8a0 0 0 0 1 0 0h-40a0 0 0 0 1 0 0v-8a8 8 0 0 1 8-8z" fill="#f09898"/><path d="m33 61h-2l-9-16h20z" fill="#fff"/><path d="m32 50a5.658 5.658 0 0 1 -5.648-5.99l.648-11.01h10l.648 11.01a5.658 5.658 0 0 1 -5.648 5.99z" fill="#ffcbbe"/><path d="m45 21v7a13 13 0 0 1 -26 0v-9.35a22.468 22.468 0 0 0 4 .35c5.01 0 9.4-1.6 11.87-4h1.13a6 6 0 0 0 6 6z" fill="#ffddce"/><path d="m35.59 28.38 8.85 3.4a13 13 0 0 1 -24.88 0l8.85-3.4a9.988 9.988 0 0 1 7.18 0z" fill="#b4e6ee"/><path d="m47.48 6.02a10.9 10.9 0 0 0 -8.48-4.02h-14a10.982 10.982 0 0 0 -7.53 3h-.47a7.008 7.008 0 0 0 -7 7v20a.992.992 0 0 0 .51.87.947.947 0 0 0 .49.13 1 1 0 0 0 .51-.14l2.49-1.49v9.63a1 1 0 0 0 .59.91.99.99 0 0 0 1.07-.16l5.55-4.85a14.006 14.006 0 0 0 4.35 3.52l-.21 3.53v.05h-5.35a9.014 9.014 0 0 0 -9 9v8a1 1 0 0 0 1 1h40a1 1 0 0 0 1-1v-8a9.014 9.014 0 0 0 -9-9h-5.35v-.05l-.21-3.53a14.056 14.056 0 0 0 4.5-3.71l5.46 4.09a1 1 0 0 0 1.05.09.977.977 0 0 0 .55-.89v-7.63l2.49 1.49a1 1 0 0 0 .51.14.947.947 0 0 0 .49-.13.992.992 0 0 0 .51-.87v-20a7.012 7.012 0 0 0 -6.52-6.98zm-33.48 6.98v16.03l-2 1.2v-18.23a5 5 0 0 1 3.67-4.8 10.948 10.948 0 0 0 -1.67 5.8zm-1 47v-7a7.008 7.008 0 0 1 7-7h1.42l7.87 14zm31-14a7.008 7.008 0 0 1 7 7v7h-16.29l7.87-14zm-5.55 0h1.84l-7.87 14h-.84l-7.87-14h1.84a6.662 6.662 0 0 0 12.9 0zm-11.1-1.93.17-2.82a13.755 13.755 0 0 0 8.96 0l.17 2.82a4.658 4.658 0 1 1 -9.3 0zm4.65-4.07a12.02 12.02 0 0 1 -11.17-7.63l7.94-3.06a8.994 8.994 0 0 1 6.46 0l7.94 3.06a12.02 12.02 0 0 1 -11.17 7.63zm12-12a12.338 12.338 0 0 1 -.25 2.45l-7.8-3a10.981 10.981 0 0 0 -7.9 0l-7.8 3a12.338 12.338 0 0 1 -.25-2.45v-8.19a22.8 22.8 0 0 0 3 .19c4.83 0 9.29-1.43 12.09-3.85a7.019 7.019 0 0 0 6.91 5.85h2zm4 10-3.93-2.95a13.85 13.85 0 0 0 1.93-7.05v-7a1 1 0 0 0 -1-1h-3a5 5 0 0 1 -5-5 1 1 0 0 0 -1-1h-1.13a1.017 1.017 0 0 0 -.7.28c-2.36 2.3-6.64 3.72-11.17 3.72a21.633 21.633 0 0 1 -3.82-.33.977.977 0 0 0 -.82.21.992.992 0 0 0 -.36.77v9.35a13.922 13.922 0 0 0 2.05 7.26l-4.05 3.54v-25.8a9.014 9.014 0 0 1 9-9h14a8.891 8.891 0 0 1 7.19 3.6.647.647 0 0 0 .08.09 8.966 8.966 0 0 1 1.73 5.31zm4-6.77-2-1.2v-17.03a11.038 11.038 0 0 0 -1-4.58 5 5 0 0 1 3 4.58z"/><path d="m27 22a1 1 0 0 0 -1 1v2a1 1 0 0 0 2 0v-2a1 1 0 0 0 -1-1z"/><path d="m37 26a1 1 0 0 0 1-1v-2a1 1 0 0 0 -2 0v2a1 1 0 0 0 1 1z"/></svg>