<?xml version="1.0" encoding="UTF-8"?>
<svg xmlns="http://www.w3.org/2000/svg" id="Avatar" viewBox="0 0 64 64" width="512" height="512"><path d="M54,38.5c0-3.494-1.876-6.7-5-9.2V17A14,14,0,0,0,35,3H29A14,14,0,0,0,15,17V29.3c-3.124,2.5-5,5.709-5,9.2s1.876,6.7,5,9.2L18.607,50A29.873,29.873,0,0,0,32,53a29.873,29.873,0,0,0,13.393-3L49,47.7C52.124,45.2,54,41.994,54,38.5Z" style="fill:#3e3d42"/><path d="M20,45H44a8,8,0,0,1,8,8v8a0,0,0,0,1,0,0H12a0,0,0,0,1,0,0V53A8,8,0,0,1,20,45Z" style="fill:#f3b1b2"/><path d="M32,50h0a5.658,5.658,0,0,1-5.648-5.99L27,33H37l.648,11.01A5.658,5.658,0,0,1,32,50Z" style="fill:#ffcbbe"/><path d="M45,17V28a13,13,0,0,1-26,0V18H31a6,6,0,0,0,5.19-3H43A2.006,2.006,0,0,1,45,17Z" style="fill:#ffddce"/><path d="M35.59,28.38l8.85,3.4a13,13,0,0,1-24.88,0l8.85-3.4A9.988,9.988,0,0,1,35.59,28.38Z" style="fill:#b4e6ee"/><path d="M55,38.5c0-3.53-1.77-6.94-5-9.67V17A15.018,15.018,0,0,0,35,2H29A15.018,15.018,0,0,0,14,17V28.83c-3.23,2.73-5,6.14-5,9.67a12.264,12.264,0,0,0,4.05,8.79A8.938,8.938,0,0,0,11,53v8a1,1,0,0,0,1,1H52a1,1,0,0,0,1-1V53a8.938,8.938,0,0,0-2.05-5.71A12.264,12.264,0,0,0,55,38.5Zm-44,0c0-3.04,1.64-6.03,4.63-8.42A1.022,1.022,0,0,0,16,29.3V17A13.012,13.012,0,0,1,29,4h6A13.012,13.012,0,0,1,48,17V29.3a1,1,0,0,0,.38.78C51.36,32.47,53,35.46,53,38.5a10.314,10.314,0,0,1-3.49,7.4A8.9,8.9,0,0,0,44,44H38.65v-.05l-.21-3.53A14.02,14.02,0,0,0,46,28V17a3.009,3.009,0,0,0-3-3H36.19a1,1,0,0,0-.87.5A4.99,4.99,0,0,1,31,17H19a1,1,0,0,0-1,1V28a14.02,14.02,0,0,0,7.56,12.42l-.21,3.53V44H20a8.9,8.9,0,0,0-5.51,1.9A10.314,10.314,0,0,1,11,38.5ZM32,40a12.02,12.02,0,0,1-11.17-7.63l7.94-3.06a8.994,8.994,0,0,1,6.46,0l7.94,3.06A12.02,12.02,0,0,1,32,40Zm4.65,4.07a4.658,4.658,0,1,1-9.3,0l.17-2.82a13.755,13.755,0,0,0,8.96,0ZM20.25,30.45A12.338,12.338,0,0,1,20,28V19H31a7.031,7.031,0,0,0,5.74-3H43a1,1,0,0,1,1,1V28a12.338,12.338,0,0,1-.25,2.45l-7.8-3a10.981,10.981,0,0,0-7.9,0ZM51,53v7H13V53a7.008,7.008,0,0,1,7-7h5.55a6.662,6.662,0,0,0,12.9,0H44A7.008,7.008,0,0,1,51,53Z"/><path d="M27,21a1,1,0,0,0-1,1v2a1,1,0,0,0,2,0V22A1,1,0,0,0,27,21Z"/><path d="M37,25a1,1,0,0,0,1-1V22a1,1,0,0,0-2,0v2A1,1,0,0,0,37,25Z"/></svg>
