<?xml version="1.0" encoding="UTF-8"?>
<svg xmlns="http://www.w3.org/2000/svg" id="Avatar" viewBox="0 0 64 64" width="512" height="512"><path d="M29,3h6A14,14,0,0,1,49,17V50a0,0,0,0,1,0,0H15a0,0,0,0,1,0,0V17A14,14,0,0,1,29,3Z" style="fill:#3e3d42"/><path d="M20,44H44a8,8,0,0,1,8,8v8a0,0,0,0,1,0,0H12a0,0,0,0,1,0,0V52A8,8,0,0,1,20,44Z" style="fill:#5bcbfa"/><path d="M32,50h0a5.658,5.658,0,0,1-5.648-5.99L27,33H37l.648,11.01A5.658,5.658,0,0,1,32,50Z" style="fill:#ffcbbe"/><path d="M37,36.985v18.03a.985.985,0,0,0,.985.985h2.03A8.985,8.985,0,0,0,49,47.015V36.985A.985.985,0,0,0,48.015,36H37.985A.985.985,0,0,0,37,36.985Z" style="fill:#3e3d42"/><path d="M27,37.27V51a3.992,3.992,0,0,0,3,3.87V55H27a8,8,0,0,1-8-8V37Z" style="fill:#3e3d42"/><path d="M23,20.11,21.236,34.387a3.96,3.96,0,0,0,1.322,3.5A12.95,12.95,0,0,0,31.269,41,13.265,13.265,0,0,0,44,27.6V17a2.006,2.006,0,0,0-2-2l-5-.9V8l-4,6-8,.55Z" style="fill:#ffddce"/><path d="M35.59,28.38l7.87,3.03A13.136,13.136,0,0,1,31.27,41a12.955,12.955,0,0,1-8.71-3.12,3.912,3.912,0,0,1-1.32-3.49l.42-3.41,6.75-2.6A9.988,9.988,0,0,1,35.59,28.38Z" style="fill:#b4e6ee"/><path d="M50,46.322V17A15.017,15.017,0,0,0,35,2H29A15.017,15.017,0,0,0,14,17V46.307A8.958,8.958,0,0,0,11,53v8a1,1,0,0,0,1,1H52a1,1,0,0,0,1-1V53A8.888,8.888,0,0,0,50,46.322ZM29,4h6A13.015,13.015,0,0,1,48,17V47a7.008,7.008,0,0,1-7,7H39V39.387A14.57,14.57,0,0,0,45,27.6V17a3,3,0,0,0-2.9-3L38,13.264V8a1,1,0,0,0-1.832-.555l-3.727,5.591-7.509.516a1,1,0,0,0-.873.659l-2,5.56a1.1,1.1,0,0,0-.052.216L20.244,34.265a4.938,4.938,0,0,0,1.664,4.378A13.955,13.955,0,0,0,26,41.07V51a4.99,4.99,0,0,0,1,3,7.008,7.008,0,0,1-7-7V41H18v3.236a8.777,8.777,0,0,0-2,.717V17A13.015,13.015,0,0,1,29,4Zm7.823,11.084,5,.9A.948.948,0,0,0,42,16a1,1,0,0,1,1,1V27.6a12.665,12.665,0,0,1-.244,2.471l-6.807-2.621a10.976,10.976,0,0,0-7.9,0l-5.2,2,1.125-9.1L25.72,15.5,33.068,15a1,1,0,0,0,.764-.443L36,11.3v2.8A1,1,0,0,0,36.823,15.084ZM22.229,34.511l.347-2.811,6.194-2.387a8.973,8.973,0,0,1,6.46,0L42.2,32a12.085,12.085,0,0,1-10.95,8,11.873,11.873,0,0,1-8.039-2.874A2.939,2.939,0,0,1,22.229,34.511ZM28,41.661A13.941,13.941,0,0,0,31,42l.286,0A13.447,13.447,0,0,0,37,40.581V45a4.99,4.99,0,0,1-9,2.979ZM51,60H13V53a6.987,6.987,0,0,1,2.626-5.471A6.91,6.91,0,0,1,18,46.3V47a9.01,9.01,0,0,0,9,9h3a1,1,0,0,0,1-1v-.13a1,1,0,0,0-.753-.969A2.988,2.988,0,0,1,28,51v-.258a6.982,6.982,0,0,0,9-.853V55a1,1,0,0,0,1,1h3a9.01,9.01,0,0,0,8.759-6.963A6.927,6.927,0,0,1,51,53Z"/><path d="M27,21a1,1,0,0,0-1,1v2a1,1,0,0,0,2,0V22A1,1,0,0,0,27,21Z"/><path d="M36,24a1,1,0,0,0,2,0V22a1,1,0,0,0-2,0Z"/></svg>
