<svg id="Avatar" height="512" viewBox="0 0 64 64" width="512" xmlns="http://www.w3.org/2000/svg"><path d="m44 46h-7v-8h-10v8h-7a8 8 0 0 0 -8 8v8h40v-8a8 8 0 0 0 -8-8z" fill="#f7d880"/><path d="m27 36h10v8h-10z" fill="#ffcbbe"/><path d="m50.656 40h-37.312a1 1 0 0 1 -.958-1.287l2.445-8.151a4 4 0 0 0 .169-1.149v-12.413a14 14 0 0 1 14-14h6a14 14 0 0 1 14 14v12.413a4 4 0 0 0 .169 1.149l2.445 8.151a1 1 0 0 1 -.958 1.287z" fill="#3e3d42"/><path d="m45 17v11a13 13 0 0 1 -26 0v-6.03a18.046 18.046 0 0 0 6.73-4.24 17.84 17.84 0 0 0 3.63-5.23 11.12 11.12 0 0 1 2.29.23l11.35 2.27a2.006 2.006 0 0 1 2 2z" fill="#ffddce"/><path d="m35.59 28.38 8.85 3.4a13 13 0 0 1 -24.88 0l8.85-3.4a9.988 9.988 0 0 1 7.18 0z" fill="#b4e6ee"/><path d="m44 45h-6v-4h12.66a2 2 0 0 0 1.61-.81 1.975 1.975 0 0 0 .3-1.77l-2.44-8.15a2.8 2.8 0 0 1 -.13-.86v-12.41a15.018 15.018 0 0 0 -15-15h-6a15.018 15.018 0 0 0 -15 15v12.41a2.8 2.8 0 0 1 -.13.86l-2.43 8.14a1.957 1.957 0 0 0 .29 1.78 2.013 2.013 0 0 0 1.61.81h12.66v4h-6a9.014 9.014 0 0 0 -9 9v8a1 1 0 0 0 1 1h40a1 1 0 0 0 1-1v-8a9.014 9.014 0 0 0 -9-9zm-30.65-6 2.44-8.16a5 5 0 0 0 .21-1.43v-12.41a13.012 13.012 0 0 1 13-13h6a13.012 13.012 0 0 1 13 13v12.41a5.069 5.069 0 0 0 .21 1.44l2.45 8.15h-10.03a13.99 13.99 0 0 0 5.37-11v-11a3.007 3.007 0 0 0 -2.89-3l-11.25-2.25a12.046 12.046 0 0 0 -2.5-.25 1 1 0 0 0 -.91.59 16.754 16.754 0 0 1 -3.43 4.93 17.216 17.216 0 0 1 -6.35 4.01.992.992 0 0 0 -.67.94v6.03a13.99 13.99 0 0 0 5.37 11zm30.4-8.55-7.8-3a10.981 10.981 0 0 0 -7.9 0l-7.8 3a12.338 12.338 0 0 1 -.25-2.45v-5.34a19.288 19.288 0 0 0 6.44-4.22 18.771 18.771 0 0 0 3.54-4.92 9.835 9.835 0 0 1 1.47.19l11.35 2.27a1.355 1.355 0 0 0 .2.02 1 1 0 0 1 1 1v11a12.338 12.338 0 0 1 -.25 2.45zm-22.92 1.92 7.94-3.06a8.994 8.994 0 0 1 6.46 0l7.94 3.06a11.991 11.991 0 0 1 -22.34 0zm15.17 9.04v1.59h-8v-1.59a13.854 13.854 0 0 0 8 0zm15 19.59h-38v-7a7.008 7.008 0 0 1 7-7h7a1 1 0 0 0 1-1v-1h3v2h2v-2h3v1a1 1 0 0 0 1 1h7a7.008 7.008 0 0 1 7 7z"/><path d="m27 21a1 1 0 0 0 -1 1v2a1 1 0 0 0 2 0v-2a1 1 0 0 0 -1-1z"/><path d="m37 25a1 1 0 0 0 1-1v-2a1 1 0 0 0 -2 0v2a1 1 0 0 0 1 1z"/></svg>