<?xml version="1.0" encoding="UTF-8"?>
<svg xmlns="http://www.w3.org/2000/svg" id="Avatar" viewBox="0 0 64 64" width="512" height="512"><path d="M50,53H14l2-35h0A15,15,0,0,1,31,3h2A15,15,0,0,1,48,18h0Z" style="fill:#3e3d42"/><path d="M20,45H44a8,8,0,0,1,8,8v8a0,0,0,0,1,0,0H12a0,0,0,0,1,0,0V53A8,8,0,0,1,20,45Z" style="fill:#5bcbfa"/><path d="M42,45a10,10,0,0,1-20,0Z" style="fill:#fff"/><path d="M32,50h0a5.658,5.658,0,0,1-5.648-5.99L27,33H37l.648,11.01A5.658,5.658,0,0,1,32,50Z" style="fill:#ffcbbe"/><path d="M19,21a2,2,0,0,1,2-2h3a8.989,8.989,0,0,0,8-4.89A8.989,8.989,0,0,0,40,19h3a2,2,0,0,1,2,2v6.633A13.242,13.242,0,0,1,32.628,40.985,13,13,0,0,1,19,28Z" style="fill:#ffddce"/><path d="M35.59,28.38l8.85,3.4a13,13,0,0,1-24.88,0l8.85-3.4A9.988,9.988,0,0,1,35.59,28.38Z" style="fill:#b4e6ee"/><path d="M50.66,46.97,49,18A16.021,16.021,0,0,0,33,2H31A16.013,16.013,0,0,0,15,17.94L13.34,46.97A8.931,8.931,0,0,0,11,53v8a1,1,0,0,0,1,1H52a1,1,0,0,0,1-1V53A8.931,8.931,0,0,0,50.66,46.97ZM17,18A14.033,14.033,0,0,1,31,4h2A14.028,14.028,0,0,1,47,18.06l1.56,27.19A8.96,8.96,0,0,0,44,44H38.65v-.05l-.21-3.53A14.02,14.02,0,0,0,46,28V21a3.009,3.009,0,0,0-3-3H40a7.971,7.971,0,0,1-7.11-4.35,1.048,1.048,0,0,0-1.78,0A7.971,7.971,0,0,1,24,18H21a3.009,3.009,0,0,0-3,3v7a14.02,14.02,0,0,0,7.56,12.42l-.21,3.53V44H20a8.96,8.96,0,0,0-4.56,1.25ZM28.77,29.31a8.994,8.994,0,0,1,6.46,0l7.94,3.06a11.991,11.991,0,0,1-22.34,0Zm-8.52,1.14A12.338,12.338,0,0,1,20,28V21a1,1,0,0,1,1-1h3a9.946,9.946,0,0,0,8-4.01A9.946,9.946,0,0,0,40,20h3a1,1,0,0,1,1,1v7a12.338,12.338,0,0,1-.25,2.45l-7.8-3a10.981,10.981,0,0,0-7.9,0Zm16.4,13.62a4.658,4.658,0,1,1-9.3,0l.17-2.82a13.755,13.755,0,0,0,8.96,0ZM32,51a6.674,6.674,0,0,0,6.45-5h2.49a9,9,0,0,1-17.88,0h2.49A6.674,6.674,0,0,0,32,51Zm19,9H13V53a7.008,7.008,0,0,1,7-7h1.05a11,11,0,0,0,21.9,0H44a7.008,7.008,0,0,1,7,7Z"/><path d="M27,21a1,1,0,0,0-1,1v2a1,1,0,0,0,2,0V22A1,1,0,0,0,27,21Z"/><path d="M37,21a1,1,0,0,0-1,1v2a1,1,0,0,0,2,0V22A1,1,0,0,0,37,21Z"/></svg>
