<svg id="Avatar" height="512" viewBox="0 0 64 64" width="512" xmlns="http://www.w3.org/2000/svg"><path d="m53.687 28.891c-.039-1.272.68-2.657.477-3.989-.192-1.266-1.282-2.38-1.629-3.675s.04-2.8-.426-4c-.491-1.254-1.8-2.1-2.408-3.216-.641-1.194-.63-2.755-1.374-3.776-.807-1.106-2.3-1.553-3.195-2.425-.992-.965-1.518-2.439-2.579-3.079-1.189-.716-2.71-.442-3.927-.693-1.311-.271-2.645-1.073-3.915-.733a4.235 4.235 0 0 0 -1.94 1.445 27.751 27.751 0 0 0 -2.931-.632c-1.271-.34-2.557-1.175-3.868-.905-1.217.251-2.133 1.523-3.323 2.239-1.06.639-2.608.79-3.6 1.755-.9.872-1.121 2.418-1.928 3.524-.744 1.021-2.154 1.687-2.8 2.882-.6 1.121-.391 2.666-.882 3.92-.466 1.193-1.676 2.178-2.022 3.473s.207 2.753.015 4.019c-.2 1.332-1.158 2.565-1.2 3.838-.042 1.355.846 2.637.98 3.893.146 1.361-.431 2.813-.091 4.016.376 1.33 1.64 2.234 2.238 3.316.672 1.216.829 2.775 1.758 3.6 1 .891 2.532.811 3.8 1.151s2.557 1.176 3.868.9c1.217-.251 2.134-1.522 3.323-2.239 1.06-.639 2.608-.789 3.6-1.755.9-.872 1.121-2.418 1.928-3.523a4.009 4.009 0 0 1 .341-.4 3.532 3.532 0 0 0 .453.9c.807 1.106 2.3 1.553 3.2 2.425.991.966 1.518 2.44 2.578 3.079 1.189.717 2.71.443 3.927.694 1.311.271 2.645 1.073 3.916.732s2.025-1.7 3.025-2.593c.929-.826 2.383-1.349 3.054-2.565.6-1.083.316-2.622.693-3.952.34-1.2 1.409-2.337 1.555-3.7.141-1.249-.649-2.595-.691-3.951z" fill="#3e3d42"/><path d="m20 45h24a8 8 0 0 1 8 8v8a0 0 0 0 1 0 0h-40a0 0 0 0 1 0 0v-8a8 8 0 0 1 8-8z" fill="#5bcbfa"/><path d="m38 45-6 11-6-11 1-12h10z" fill="#ffcbbe"/><path d="m43 15-11.35-2.27a11.947 11.947 0 0 0 -7.08.74l-.2.09a.209.209 0 0 0 -.04.06c-.61 1.12-.4 2.66-.89 3.92-.46 1.19-1.67 2.17-2.02 3.47s.21 2.75.02 4.02c-.21 1.33-1.16 2.56-1.2 3.84-.04 1.35.85 2.63.98 3.89a10.921 10.921 0 0 1 -.14 2.28 12.994 12.994 0 0 0 23.92-7.04v-11a2.006 2.006 0 0 0 -2-2z" fill="#ffddce"/><path d="m35.59 28.38 8.85 3.4a12.994 12.994 0 0 1 -23.36 3.26 17.959 17.959 0 0 0 .16-1.8 3.854 3.854 0 0 0 -.02-.48 5.792 5.792 0 0 0 -.4-1.46l7.59-2.92a9.988 9.988 0 0 1 7.18 0z" fill="#b4e6ee"/><path d="m55.01 30.46a6.666 6.666 0 0 1 -.32-1.6 6.794 6.794 0 0 1 .22-1.5 6.984 6.984 0 0 0 .24-2.61 6.657 6.657 0 0 0 -.96-2.31 6.788 6.788 0 0 1 -.69-1.46 6.416 6.416 0 0 1 -.13-1.63 6.609 6.609 0 0 0 -.33-2.48 7.02 7.02 0 0 0 -1.5-2.13 6.546 6.546 0 0 1 -.96-1.2 7.047 7.047 0 0 1 -.51-1.55 6.637 6.637 0 0 0 -.93-2.34 6.888 6.888 0 0 0 -2.13-1.73 6.261 6.261 0 0 1 -1.18-.83 7 7 0 0 1 -.96-1.24 6.1 6.1 0 0 0 -1.81-1.98 6.244 6.244 0 0 0 -3.02-.69 10.1 10.1 0 0 1 -1.21-.12 8.592 8.592 0 0 1 -1.15-.34 5.653 5.653 0 0 0 -3.23-.38 4.489 4.489 0 0 0 -1.98 1.27 11.615 11.615 0 0 0 -1.26-.24 9.477 9.477 0 0 1 -1.11-.22 11.035 11.035 0 0 1 -1.06-.36 5.76 5.76 0 0 0 -3.27-.55 5.7 5.7 0 0 0 -2.5 1.49 10.109 10.109 0 0 1 -1.13.87 7.583 7.583 0 0 1 -1.23.52 6.738 6.738 0 0 0 -2.56 1.37 6.475 6.475 0 0 0 -1.31 2.21 6.467 6.467 0 0 1 -.73 1.44 6.235 6.235 0 0 1 -1.07 1.03 6.969 6.969 0 0 0 -1.79 1.97 6.661 6.661 0 0 0 -.62 2.44 7.188 7.188 0 0 1 -.32 1.6 6.4 6.4 0 0 1 -.81 1.31 6.755 6.755 0 0 0 -1.24 2.26 6.681 6.681 0 0 0 -.06 2.59 6.224 6.224 0 0 1 .05 1.53 6.507 6.507 0 0 1 -.52 1.54 6.678 6.678 0 0 0 -.69 2.43 6.828 6.828 0 0 0 .57 2.58 6.768 6.768 0 0 1 .42 1.45 7.524 7.524 0 0 1 -.09 1.61 6.141 6.141 0 0 0 .03 2.56 6.386 6.386 0 0 0 1.52 2.47 7.182 7.182 0 0 1 .8 1.06 8.572 8.572 0 0 1 .55 1.33 5.781 5.781 0 0 0 1.42 2.54 3.831 3.831 0 0 0 1.17.7 8.995 8.995 0 0 0 -4.63 7.86v8a1 1 0 0 0 1 1h40a1 1 0 0 0 1-1v-8a8.984 8.984 0 0 0 -4.55-7.81c.16-.17.31-.33.46-.5a7.9 7.9 0 0 1 .83-.88 9.867 9.867 0 0 1 .99-.7 6.205 6.205 0 0 0 2.28-2.12 5.981 5.981 0 0 0 .58-2.61 7.464 7.464 0 0 1 .2-1.56 7.448 7.448 0 0 1 .61-1.3 6.727 6.727 0 0 0 .97-2.56 6.327 6.327 0 0 0 -.36-2.5zm-4.01 22.54v7h-38v-7a7.008 7.008 0 0 1 7-7h5.41l5.71 10.48a1 1 0 0 0 1.76 0l5.71-10.48h5.41a7.008 7.008 0 0 1 7 7zm-28.79-20.34a4.97 4.97 0 0 0 -.14-.77l6.7-2.58a8.994 8.994 0 0 1 6.46 0l7.94 3.05a12 12 0 0 1 -11.17 7.64 11.882 11.882 0 0 1 -9.88-5.21l.01-.09a13.921 13.921 0 0 0 .11-1.46 3.758 3.758 0 0 0 -.03-.58zm.18-9.54a9.025 9.025 0 0 1 -.09-1.12 2.807 2.807 0 0 1 .09-.73 5.293 5.293 0 0 1 .92-1.6 7.7 7.7 0 0 0 1.06-1.77 8.155 8.155 0 0 0 .44-2.07 6.53 6.53 0 0 1 .3-1.5 10.932 10.932 0 0 1 6.34-.62l11.35 2.27a1.355 1.355 0 0 0 .2.02 1 1 0 0 1 1 1v11a12.338 12.338 0 0 1 -.25 2.45l-7.8-3a10.981 10.981 0 0 0 -7.9 0l-6.62 2.54a3.574 3.574 0 0 1 -.19-1.03v-.06a5.073 5.073 0 0 1 .53-1.7 8.547 8.547 0 0 0 .66-2.02 4.68 4.68 0 0 0 .05-.74c0-.45-.05-.89-.09-1.32zm14.59 21.66-4.98 9.13-4.98-9.13.3-3.6a13.765 13.765 0 0 0 9.36 0zm16.4-12.03a4.882 4.882 0 0 1 -.73 1.8 7.957 7.957 0 0 0 -.78 1.73 9.349 9.349 0 0 0 -.28 1.97 4.615 4.615 0 0 1 -.33 1.77 4.543 4.543 0 0 1 -1.62 1.41 11.4 11.4 0 0 0 -1.22.88 10.023 10.023 0 0 0 -1.01 1.06 8.977 8.977 0 0 1 -.96.98 9.008 9.008 0 0 0 -2.45-.35h-5.08l-.31-3.67a13.986 13.986 0 0 0 7.39-12.33v-11a3.007 3.007 0 0 0 -2.89-3l-11.26-2.25a12.872 12.872 0 0 0 -7.69.81l-.2.09a1.209 1.209 0 0 0 -.3.2 3.063 3.063 0 0 0 -.21.29 6.661 6.661 0 0 0 -.62 2.44 7.188 7.188 0 0 1 -.32 1.6 6.4 6.4 0 0 1 -.81 1.31 6.755 6.755 0 0 0 -1.24 2.26 4.516 4.516 0 0 0 -.16 1.25 11.4 11.4 0 0 0 .1 1.34c.04.39.08.76.08 1.1a2.9 2.9 0 0 1 -.03.43 6.507 6.507 0 0 1 -.52 1.54 6.678 6.678 0 0 0 -.69 2.43v.12a7.1 7.1 0 0 0 .57 2.46 6.768 6.768 0 0 1 .42 1.45c.01.12.01.24.01.37a10.56 10.56 0 0 1 -.1 1.21l-.05.48a.985.985 0 0 0 .15.65 13.892 13.892 0 0 0 5.15 4.76l-.31 3.66h-5.08c-.12 0-.24.01-.37.02-.14-.05-.29-.11-.44-.15-.44-.11-.88-.18-1.31-.25a4.139 4.139 0 0 1 -2.09-.68 4.332 4.332 0 0 1 -.87-1.71 9.741 9.741 0 0 0 -.68-1.63 8.261 8.261 0 0 0 -1.03-1.38 5.068 5.068 0 0 1 -1.12-1.72 5.058 5.058 0 0 1 .03-1.77 8.761 8.761 0 0 0 .09-2.07 8.33 8.33 0 0 0 -.52-1.93 5.15 5.15 0 0 1 -.45-1.83 5.073 5.073 0 0 1 .53-1.7 8.547 8.547 0 0 0 .66-2.02 8.328 8.328 0 0 0 -.04-2.06 4.985 4.985 0 0 1 0-1.85 5.293 5.293 0 0 1 .92-1.6 7.7 7.7 0 0 0 1.06-1.77 8.155 8.155 0 0 0 .44-2.07 5.187 5.187 0 0 1 .4-1.74 5.166 5.166 0 0 1 1.32-1.38 8.76 8.76 0 0 0 1.4-1.39 8.768 8.768 0 0 0 .96-1.84 4.6 4.6 0 0 1 .86-1.55 5.078 5.078 0 0 1 1.83-.93 9.164 9.164 0 0 0 1.59-.68 10.186 10.186 0 0 0 1.4-1.08 4.335 4.335 0 0 1 1.6-1.04 4.17 4.17 0 0 1 2.15.45c.41.16.83.32 1.26.44s.88.18 1.31.25a7.758 7.758 0 0 1 1.52.34.993.993 0 0 0 1.1-.26 3.545 3.545 0 0 1 1.46-1.14 3.926 3.926 0 0 1 2.08.34 11.641 11.641 0 0 0 1.38.4 9.531 9.531 0 0 0 1.5.15 4.5 4.5 0 0 1 2.1.42 4.635 4.635 0 0 1 1.18 1.38 9.338 9.338 0 0 0 1.22 1.55 8.171 8.171 0 0 0 1.55 1.11 5.185 5.185 0 0 1 1.54 1.2 5.274 5.274 0 0 1 .61 1.65 8.049 8.049 0 0 0 .69 2 8.033 8.033 0 0 0 1.25 1.62 5.228 5.228 0 0 1 1.11 1.5 5.005 5.005 0 0 1 .19 1.76 8.259 8.259 0 0 0 .2 2.13 7.8 7.8 0 0 0 .89 1.94 5.022 5.022 0 0 1 .71 1.63 5 5 0 0 1 -.21 1.86 8.313 8.313 0 0 0 -.27 2 8.247 8.247 0 0 0 .4 2.08 4.917 4.917 0 0 1 .29 1.75z"/><path d="m27 21a1 1 0 0 0 -1 1v2a1 1 0 0 0 2 0v-2a1 1 0 0 0 -1-1z"/><path d="m37 25a1 1 0 0 0 1-1v-2a1 1 0 0 0 -2 0v2a1 1 0 0 0 1 1z"/></svg>