<svg id="Avatar" height="512" viewBox="0 0 64 64" width="512" xmlns="http://www.w3.org/2000/svg"><path d="m20 45h24a8 8 0 0 1 8 8v8a0 0 0 0 1 0 0h-40a0 0 0 0 1 0 0v-8a8 8 0 0 1 8-8z" fill="#5bcbfa"/><path d="m49 41h-34v-24a14 14 0 0 1 14-14h6a14 14 0 0 1 14 14z" fill="#3e3d42"/><path d="m23 45v9l9-3-6-6z" fill="#fff"/><path d="m41 45v9l-9-3 6-6z" fill="#fff"/><path d="m38 45-6 6-6-6 1-12h10z" fill="#ffcbbe"/><path d="m45 17v11a13 13 0 0 1 -26 0v-10h12a6 6 0 0 0 5.19-3h6.81a2.006 2.006 0 0 1 2 2z" fill="#ffddce"/><path d="m35.59 28.38 8.85 3.4a13 13 0 0 1 -24.88 0l8.85-3.4a9.988 9.988 0 0 1 7.18 0z" fill="#b4e6ee"/><path d="m44 44h-5.08l-.17-2h10.25a1 1 0 0 0 1-1v-24a15.018 15.018 0 0 0 -15-15h-6a15.018 15.018 0 0 0 -15 15v24a1 1 0 0 0 1 1h10.25l-.17 2h-5.08a9.014 9.014 0 0 0 -9 9v8a1 1 0 0 0 1 1h40a1 1 0 0 0 1-1v-8a9.014 9.014 0 0 0 -9-9zm-4 2v6.61l-6.15-2.05 4.56-4.56zm-8 3.59-4.96-4.97.28-3.44a13.765 13.765 0 0 0 9.36 0l.28 3.44zm-16-9.59v-23a13.012 13.012 0 0 1 13-13h6a13.012 13.012 0 0 1 13 13v23h-8.83a13.993 13.993 0 0 0 6.83-12v-11a3.009 3.009 0 0 0 -3-3h-6.81a1 1 0 0 0 -.87.5 4.99 4.99 0 0 1 -4.32 2.5h-12a1 1 0 0 0 -1 1v10a13.993 13.993 0 0 0 6.83 12zm27.75-9.55-7.8-3a10.981 10.981 0 0 0 -7.9 0l-7.8 3a12.338 12.338 0 0 1 -.25-2.45v-9h11a7.031 7.031 0 0 0 5.74-3h6.26a1 1 0 0 1 1 1v11a12.338 12.338 0 0 1 -.25 2.45zm-22.92 1.92 7.94-3.06a8.994 8.994 0 0 1 6.46 0l7.94 3.06a11.991 11.991 0 0 1 -22.34 0zm3.17 13.63h1.59l4.56 4.56-6.15 2.05zm27 14h-38v-7a7.008 7.008 0 0 1 7-7h2v8a.983.983 0 0 0 .42.81.939.939 0 0 0 .58.19 1.185 1.185 0 0 0 .32-.05l8.68-2.9 8.68 2.9a1.185 1.185 0 0 0 .32.05.939.939 0 0 0 .58-.19.983.983 0 0 0 .42-.81v-8h2a7.008 7.008 0 0 1 7 7z"/><path d="m27 21a1 1 0 0 0 -1 1v2a1 1 0 0 0 2 0v-2a1 1 0 0 0 -1-1z"/><path d="m37 25a1 1 0 0 0 1-1v-2a1 1 0 0 0 -2 0v2a1 1 0 0 0 1 1z"/></svg>