<?xml version="1.0" encoding="UTF-8"?>
<svg xmlns="http://www.w3.org/2000/svg" id="Avatar" viewBox="0 0 64 64" width="512" height="512"><path d="M53.468,43.468l-1.832-1.832A9,9,0,0,1,49,35.272V15A12,12,0,0,0,37,3H27A12,12,0,0,0,15,15V35.272a9,9,0,0,1-2.636,6.364l-1.832,1.832a4,4,0,0,0-.295,5.328L12,51H52l1.763-2.2A4,4,0,0,0,53.468,43.468Z" style="fill:#3e3d42"/><path d="M20,45H44a8,8,0,0,1,8,8v8a0,0,0,0,1,0,0H12a0,0,0,0,1,0,0V53A8,8,0,0,1,20,45Z" style="fill:#f6c850"/><path d="M32,50h0a5.658,5.658,0,0,1-5.648-5.99L27,33H37l.648,11.01A5.658,5.658,0,0,1,32,50Z" style="fill:#ffcbbe"/><path d="M21,15H43a2,2,0,0,1,2,2V28A13,13,0,0,1,32,41h0A13,13,0,0,1,19,28V17a2,2,0,0,1,2-2Z" style="fill:#ffddce"/><path d="M35.59,28.38l8.85,3.4a13,13,0,0,1-24.88,0l8.85-3.4A9.988,9.988,0,0,1,35.59,28.38Z" style="fill:#b4e6ee"/><path d="M54.18,42.76l-1.83-1.83A7.917,7.917,0,0,1,50,35.27V15A13.012,13.012,0,0,0,37,2H27A13.012,13.012,0,0,0,14,15V35.27a7.917,7.917,0,0,1-2.35,5.66L9.82,42.76a4.994,4.994,0,0,0-.36,6.66l1.67,2.1A8.952,8.952,0,0,0,11,53v8a1,1,0,0,0,1,1H52a1,1,0,0,0,1-1V53a8.952,8.952,0,0,0-.13-1.48l1.67-2.1A4.994,4.994,0,0,0,54.18,42.76ZM51,60H13V53a7.008,7.008,0,0,1,7-7h5.55a6.662,6.662,0,0,0,12.9,0H44a7.008,7.008,0,0,1,7,7ZM28.77,29.31a8.994,8.994,0,0,1,6.46,0l7.94,3.06a11.991,11.991,0,0,1-22.34,0Zm-8.52,1.14A12.338,12.338,0,0,1,20,28V17a1,1,0,0,1,1-1H43a1,1,0,0,1,1,1V28a12.338,12.338,0,0,1-.25,2.45l-7.8-3a10.981,10.981,0,0,0-7.9,0Zm16.4,13.62a4.658,4.658,0,1,1-9.3,0l.17-2.82a13.755,13.755,0,0,0,8.96,0Zm16.33,4.1-.83,1.04A9,9,0,0,0,44,44H38.65v-.05l-.21-3.53A14.02,14.02,0,0,0,46,28V17a3.009,3.009,0,0,0-3-3H21a3.009,3.009,0,0,0-3,3V28a14.02,14.02,0,0,0,7.56,12.42l-.21,3.53V44H20a9,9,0,0,0-8.15,5.21l-.83-1.04a2.989,2.989,0,0,1,.22-3.99l1.83-1.83A9.955,9.955,0,0,0,16,35.27V15A11.007,11.007,0,0,1,27,4H37A11.007,11.007,0,0,1,48,15V35.27a9.955,9.955,0,0,0,2.93,7.08l1.83,1.83A2.989,2.989,0,0,1,52.98,48.17Z"/><path d="M27,21a1,1,0,0,0-1,1v2a1,1,0,0,0,2,0V22A1,1,0,0,0,27,21Z"/><path d="M37,25a1,1,0,0,0,1-1V22a1,1,0,0,0-2,0v2A1,1,0,0,0,37,25Z"/></svg>
