<svg id="Avatar" height="512" viewBox="0 0 64 64" width="512" xmlns="http://www.w3.org/2000/svg"><path d="m20 45h24a8 8 0 0 1 8 8v8a0 0 0 0 1 0 0h-40a0 0 0 0 1 0 0v-8a8 8 0 0 1 8-8z" fill="#f6cc4f"/><path d="m35 3h-6a14 14 0 0 0 -14 14v28.5a9.5 9.5 0 0 0 9.5 9.5 1.5 1.5 0 0 0 1.5-1.5v-8.5h12v8.5a1.5 1.5 0 0 0 1.5 1.5 9.5 9.5 0 0 0 9.5-9.5v-28.5a14 14 0 0 0 -14-14z" fill="#3e3d42"/><path d="m17 19h2a0 0 0 0 1 0 0v7a0 0 0 0 1 0 0h-2a2 2 0 0 1 -2-2v-3a2 2 0 0 1 2-2z" fill="#ffcbbe"/><path d="m47 19h2a0 0 0 0 1 0 0v7a0 0 0 0 1 0 0h-2a2 2 0 0 1 -2-2v-3a2 2 0 0 1 2-2z" fill="#ffcbbe" transform="matrix(-1 0 0 -1 94 45)"/><path d="m45 16.66v11.34a13 13 0 0 1 -26 0v-10.69a1.981 1.981 0 0 1 1.2-1.83l6.01-2.64a11.914 11.914 0 0 1 5.66-.3l11.5 2.15a2.013 2.013 0 0 1 1.63 1.97z" fill="#ffddce"/><path d="m26 37h12a0 0 0 0 1 0 0v10a6 6 0 0 1 -6 6 6 6 0 0 1 -6-6v-10a0 0 0 0 1 0 0z" fill="#ffcbbe"/><path d="m35.59 28.38 8.85 3.4a13 13 0 0 1 -24.88 0l8.85-3.4a9.988 9.988 0 0 1 7.18 0z" fill="#b4e6ee"/><rect height="2" rx="1" width="2" x="31" y="57"/><path d="m49.96 46.28c.02-.26.04-.52.04-.78v-28.5a15.018 15.018 0 0 0 -15-15h-6a15.018 15.018 0 0 0 -15 15v28.5c0 .26.02.52.04.78a8.9 8.9 0 0 0 -3.04 6.72v8a1 1 0 0 0 1 1h40a1 1 0 0 0 1-1v-8a8.9 8.9 0 0 0 -3.04-6.72zm-33.96-29.28a13.012 13.012 0 0 1 13-13h6a13.012 13.012 0 0 1 13 13v1.18a3 3 0 0 0 -1-.18h-1v-1.34a3.009 3.009 0 0 0 -2.45-2.95l-11.5-2.16a13.115 13.115 0 0 0 -6.13.33c-.04.01-.08.03-.12.04l-6.01 2.64a3 3 0 0 0 -1.79 2.75v.69h-1a3 3 0 0 0 -1 .18zm16 23a12.02 12.02 0 0 1 -11.17-7.63l7.94-3.06a8.994 8.994 0 0 1 6.46 0l7.94 3.06a12.02 12.02 0 0 1 -11.17 7.63zm5 1.06v2.94a5 5 0 0 1 -10 0v-2.94a13.768 13.768 0 0 0 10 0zm-16.75-10.61a12.338 12.338 0 0 1 -.25-2.45v-10.69a1 1 0 0 1 .6-.92l5.95-2.61a11 11 0 0 1 5.13-.26l11.51 2.16a1 1 0 0 1 .81.98v11.34a12.338 12.338 0 0 1 -.25 2.45l-7.8-3a10.981 10.981 0 0 0 -7.9 0zm18.75 9.66a14 14 0 0 0 7-12.11v-1h1a3 3 0 0 0 1-.18v18.68a8.506 8.506 0 0 1 -8.5 8.5.5.5 0 0 1 -.5-.5zm8-15.11h-1v-5h1a1 1 0 0 1 1 1v3a1 1 0 0 1 -1 1zm-31-4a1 1 0 0 1 1-1h1v5h-1a1 1 0 0 1 -1-1zm0 5.82a3 3 0 0 0 1 .18h1v1a14 14 0 0 0 7 12.11v13.39a.5.5 0 0 1 -.5.5 8.506 8.506 0 0 1 -8.5-8.5zm35 33.18h-38v-7a6.891 6.891 0 0 1 1.5-4.32 10.51 10.51 0 0 0 10 7.32 2.5 2.5 0 0 0 2.5-2.5v-4.61a6.979 6.979 0 0 0 10 0v4.61a2.5 2.5 0 0 0 2.5 2.5 10.51 10.51 0 0 0 10-7.32 6.891 6.891 0 0 1 1.5 4.32z"/><path d="m27 21a1 1 0 0 0 -1 1v2a1 1 0 0 0 2 0v-2a1 1 0 0 0 -1-1z"/><path d="m37 21a1 1 0 0 0 -1 1v2a1 1 0 0 0 2 0v-2a1 1 0 0 0 -1-1z"/><circle cx="32" cy="54" r="1"/></svg>