<?xml version="1.0" encoding="UTF-8"?>
<svg xmlns="http://www.w3.org/2000/svg" id="Avatar" viewBox="0 0 64 64" width="512" height="512"><path d="M20,45H44a8,8,0,0,1,8,8v8a0,0,0,0,1,0,0H12a0,0,0,0,1,0,0V53A8,8,0,0,1,20,45Z" style="fill:#dd636e"/><path d="M47.95,46.05A10.015,10.015,0,0,1,38,55H26a10.015,10.015,0,0,1-9.95-8.95A7.872,7.872,0,0,1,20,45h6.39a5.4,5.4,0,0,1-.04-.99L27,33H37l.65,11.01a5.4,5.4,0,0,1-.04.99H44A7.872,7.872,0,0,1,47.95,46.05Z" style="fill:#ffcbbe"/><path d="M32,41h0A13,13,0,0,1,19,28V16a4,4,0,0,1,4-4H45V28A13,13,0,0,1,32,41Z" style="fill:#ffddce"/><path d="M32,12H23a4,4,0,0,0-4,4V28a12.882,12.882,0,0,0,2.05,7H17a6,6,0,0,1-6-6V17A14,14,0,0,1,25,3H35A14,14,0,0,1,49,17V35H42.95A12.882,12.882,0,0,0,45,28V19H39a2.968,2.968,0,0,1-2.82-2H35a3,3,0,0,1-3-3Z" style="fill:#3e3d42"/><path d="M47,19h2a0,0,0,0,1,0,0v7a0,0,0,0,1,0,0H47a2,2,0,0,1-2-2V21A2,2,0,0,1,47,19Z" transform="translate(94 45) rotate(-180)" style="fill:#ffcbbe"/><path d="M35.59,28.38l8.85,3.4a13,13,0,0,1-24.88,0l8.85-3.4A9.988,9.988,0,0,1,35.59,28.38Z" style="fill:#b4e6ee"/><path d="M44,44H38.59l-.2-3.56A14.027,14.027,0,0,0,43.47,36H49a1,1,0,0,0,1-1V17A15.018,15.018,0,0,0,35,2H25A15.018,15.018,0,0,0,10,17V29a7.008,7.008,0,0,0,7,7h3.53a14.027,14.027,0,0,0,5.08,4.44L25.41,44H20a9.014,9.014,0,0,0-9,9v8a1,1,0,0,0,1,1H52a1,1,0,0,0,1-1V53A9.014,9.014,0,0,0,44,44Zm4-10H44.63A13.869,13.869,0,0,0,46,28V27h1a3,3,0,0,0,1-.18Zm0-10a1,1,0,0,1-1,1H46V20h1a1,1,0,0,1,1,1ZM17,34a5,5,0,0,1-5-5V17A13.012,13.012,0,0,1,25,4H35A13.012,13.012,0,0,1,48,17v1.18A3,3,0,0,0,47,18H39a1.966,1.966,0,0,1-1.87-1.32,1,1,0,0,0-.95-.68H35a2.006,2.006,0,0,1-2-2V12a1,1,0,0,0-1-1H21a3.009,3.009,0,0,0-3,3V28a13.869,13.869,0,0,0,1.37,6Zm3.25-3.55A12.338,12.338,0,0,1,20,28V14a1,1,0,0,1,1-1H31v1a4,4,0,0,0,4,4h.54A3.987,3.987,0,0,0,39,20h5v8a12.338,12.338,0,0,1-.25,2.45l-7.8-3a10.981,10.981,0,0,0-7.9,0Zm.58,1.92,7.94-3.06a8.994,8.994,0,0,1,6.46,0l7.94,3.06a11.991,11.991,0,0,1-22.34,0ZM20,46h6.35a1,1,0,0,0,1-.94l.22-3.79a13.807,13.807,0,0,0,8.86,0l.22,3.79a1,1,0,0,0,1,.94H44a6.936,6.936,0,0,1,2.85.61A8.975,8.975,0,0,1,38,54H26a8.975,8.975,0,0,1-8.85-7.39A6.936,6.936,0,0,1,20,46ZM51,60H13V53a7.007,7.007,0,0,1,2.36-5.23A10.968,10.968,0,0,0,26,56H38a10.968,10.968,0,0,0,10.64-8.23A7.007,7.007,0,0,1,51,53Z"/><path d="M27,21a1,1,0,0,0-1,1v2a1,1,0,0,0,2,0V22A1,1,0,0,0,27,21Z"/><path d="M37,25a1,1,0,0,0,1-1V22a1,1,0,0,0-2,0v2A1,1,0,0,0,37,25Z"/></svg>
