<svg id="Avatar" height="512" viewBox="0 0 64 64" width="512" xmlns="http://www.w3.org/2000/svg"><path d="m20 45h24a8 8 0 0 1 8 8v8a0 0 0 0 1 0 0h-40a0 0 0 0 1 0 0v-8a8 8 0 0 1 8-8z" fill="#5bcbfa"/><path d="m29 49h6l1 12h-8z" fill="#ec455a"/><path d="m23 45 2 8 5-4-1-4z" fill="#fff"/><path d="m41 45-2 8-5-4 1-4z" fill="#fff"/><path d="m52.9 34.99a5 5 0 0 1 -4.9 4.01h-32a5 5 0 0 1 -4.9-4.01 4.986 4.986 0 0 0 4.9-4.99v-11c0-11.5 7.16-16 16-16a15.979 15.979 0 0 1 16 16v11a4.986 4.986 0 0 0 4.9 4.99z" fill="#3e3d42"/><path d="m38 45-6 6-6-6 1-12h10z" fill="#ffcbbe"/><path d="m45 23v5a13 13 0 0 1 -26 0v-5l1.89-2.79a4.02 4.02 0 0 1 3.58-2.21h6.53a6 6 0 0 0 6-6 5 5 0 0 0 4 4.9 2.088 2.088 0 0 1 1.49 1.08z" fill="#ffddce"/><path d="m35.59 28.38 8.85 3.4a13 13 0 0 1 -24.88 0l8.85-3.4a9.988 9.988 0 0 1 7.18 0z" fill="#b4e6ee"/><path d="m44 44h-5.08l-.31-3.67c.19-.1.38-.22.56-.33h8.83a6.006 6.006 0 0 0 5.88-4.81.993.993 0 0 0 -.2-.83 1.031 1.031 0 0 0 -.76-.37 4 4 0 0 1 -3.92-3.99v-11a16.969 16.969 0 0 0 -17-17c-10.8 0-17 6.2-17 17v11a4 4 0 0 1 -3.92 3.99 1.031 1.031 0 0 0 -.76.37.993.993 0 0 0 -.2.83 6.006 6.006 0 0 0 5.88 4.81h8.82c.19.11.37.24.57.34l-.31 3.66h-5.08a9.014 9.014 0 0 0 -9 9v8a1 1 0 0 0 1 1h40a1 1 0 0 0 1-1v-8a9.014 9.014 0 0 0 -9-9zm-28-6a4 4 0 0 1 -3.56-2.18 6.015 6.015 0 0 0 4.56-5.82v-11c0-13.05 9.4-15 15-15a14.988 14.988 0 0 1 15 15v11a6.015 6.015 0 0 0 4.56 5.82 4 4 0 0 1 -3.56 2.18h-6.22a13.939 13.939 0 0 0 4.22-10v-5a1 1 0 0 0 -.11-.45l-2.51-5.02a3.1 3.1 0 0 0 -2.18-1.61 4.028 4.028 0 0 1 -2.29-1.38 3.972 3.972 0 0 1 -.91-2.54 1 1 0 0 0 -2 0 5 5 0 0 1 -5 5h-6.53a5.046 5.046 0 0 0 -4.44 2.7l-1.86 2.74a1 1 0 0 0 -.17.56v5a13.936 13.936 0 0 0 4.1 9.9 1.059 1.059 0 0 1 .12.1zm27.75-7.55-7.8-3a10.981 10.981 0 0 0 -7.9 0l-7.8 3a12.493 12.493 0 0 1 -.25-2.45v-4.69l1.72-2.54a1.091 1.091 0 0 0 .06-.11 3.044 3.044 0 0 1 2.69-1.66h6.53a7 7 0 0 0 6.09-3.55c.09.13.18.25.28.37a6.041 6.041 0 0 0 3.43 2.06 1.117 1.117 0 0 1 .8.55l2.4 4.81v4.76a12.338 12.338 0 0 1 -.25 2.45zm-20.23 6.03a11.907 11.907 0 0 1 -2.69-4.11l7.94-3.06a8.994 8.994 0 0 1 6.46 0l7.94 3.06a11.985 11.985 0 0 1 -19.65 4.11zm13.44 8.14-4.96 4.97-4.96-4.97.28-3.44a13.765 13.765 0 0 0 9.36 0zm-9.88 15.38h-14.08v-7a7.008 7.008 0 0 1 7-7h2.22l1.81 7.24a1.01 1.01 0 0 0 .65.71 1.185 1.185 0 0 0 .32.05 1 1 0 0 0 .62-.22l2.12-1.69zm-1.49-8.75-1.31-5.25h1.31l2.91 2.92zm3.5 8.75.8-9.63.04-.03 1.36 1.37a1.014 1.014 0 0 0 1.42 0l1.36-1.37.04.03.8 9.63zm6.41-11.08 2.91-2.92h1.31l-1.31 5.25zm15.5 11.08h-14.08l-.66-7.91 2.12 1.69a1 1 0 0 0 .62.22 1.127 1.127 0 0 0 .32-.05 1.01 1.01 0 0 0 .65-.71l1.81-7.24h2.22a7.008 7.008 0 0 1 7 7z"/><path d="m27 21a1 1 0 0 0 -1 1v2a1 1 0 0 0 2 0v-2a1 1 0 0 0 -1-1z"/><path d="m37 25a1 1 0 0 0 1-1v-2a1 1 0 0 0 -2 0v2a1 1 0 0 0 1 1z"/></svg>