<svg fill="#0080C0" height="65px" width="65px" version="1.1" xmlns="https://www.w3.org/2000/svg" xmlns:xlink="https://www.w3.org/1999/xlink" viewBox="0 0 25.881 25.881" xml:space="preserve">
  <g>
    <g>
      <g>
        <path d="M20.244 17.531c0.974 -1.035 1.712 -2.261 2.174 -3.588c1.795 -0.027 3.247 -1.495 3.247 -3.296c0 -1.569 -1.102 -2.885 -2.573 -3.216C21.702 3.036 17.583 0 12.94 0C8.3 0 4.18 3.037 2.789 7.43c-1.471 0.331 -2.574 1.647 -2.574 3.216c0 1.342 0.806 2.498 1.959 3.012c0.321 1.123 1.19 2.017 2.298 2.373c0.338 0.533 0.728 1.035 1.164 1.499c-2.543 1.82 -4.348 4.557 -4.998 7.614c-0.038 0.18 0.007 0.367 0.122 0.51c0.116 0.143 0.29 0.226 0.474 0.226h23.413c0.184 0 0.358 -0.083 0.474 -0.226c0.116 -0.143 0.161 -0.33 0.122 -0.51C24.593 22.087 22.788 19.351 20.244 17.531zM22.769 8.607c0.955 0.187 1.678 1.03 1.678 2.039c0 1.01 -0.724 1.853 -1.68 2.04c0.139 -0.666 0.211 -1.349 0.211 -2.04C22.978 9.948 22.906 9.266 22.769 8.607zM2.903 10.647c0 0.121 0.003 0.241 0.007 0.361c-0.08 -0.038 -0.168 -0.06 -0.262 -0.06c-0.337 0 -0.609 0.273 -0.609 0.609v0.554c-0.374 -0.376 -0.605 -0.894 -0.605 -1.464c0 -1.009 0.723 -1.852 1.678 -2.039C2.975 9.266 2.903 9.948 2.903 10.647zM2.013 24.662v0c0.765 -2.682 2.523 -5.032 4.907 -6.525c0.162 -0.101 0.266 -0.272 0.283 -0.462c0.017 -0.19 -0.056 -0.377 -0.197 -0.505c-0.332 -0.302 -0.637 -0.627 -0.916 -0.972h1.256c0.186 0.261 0.491 0.432 0.836 0.432c0.568 0 1.028 -0.46 1.028 -1.028c0 -0.567 -0.46 -1.027 -1.028 -1.027c-0.333 0 -0.628 0.159 -0.816 0.405H5.539c-0.097 0 -0.193 -0.007 -0.286 -0.019c-0.732 -1.306 -1.13 -2.791 -1.13 -4.314C4.122 5.784 8.078 1.828 12.94 1.828c4.863 0 8.818 3.956 8.818 8.818c0 2.477 -1.051 4.855 -2.884 6.523c-0.141 0.128 -0.214 0.315 -0.197 0.505c0.017 0.19 0.122 0.361 0.283 0.462c2.384 1.494 4.142 3.843 4.907 6.525H2.013z"/>
        <path cx="85.605" cy="106.92" r="13.644" d="M8.064 8.687A1.109 1.109 0 0 1 6.955 9.796A1.109 1.109 0 0 1 5.847 8.687A1.109 1.109 0 0 1 8.064 8.687z"/>
        <path d="M18.151 10.037H7.73c-0.337 0 -0.609 0.273 -0.609 0.609c0 3.209 2.611 5.819 5.819 5.819c3.209 0 5.82 -2.611 5.82 -5.819C18.76 10.31 18.487 10.037 18.151 10.037zM12.94 15.247c-2.33 0 -4.261 -1.741 -4.56 -3.991h9.121C17.202 13.506 15.271 15.247 12.94 15.247z"/>
        <path cx="232.93" cy="106.921" r="13.645" d="M20.034 8.687A1.109 1.109 0 0 1 18.926 9.796A1.109 1.109 0 0 1 17.817 8.687A1.109 1.109 0 0 1 20.034 8.687z"/>
      </g>
    </g>
  </g>
</svg>
